<svg width="1426" height="266" viewBox="0 0 1426 266" fill="none" xmlns="http://www.w3.org/2000/svg">
<g opacity="0.05">
<path d="M294.045 61.4985L292.766 61.6368L292.344 60.4233L292.344 60.423L292.343 60.4224L292.343 60.4215L292.342 60.4199L292.335 60.3983C292.327 60.3774 292.315 60.3435 292.298 60.2977C292.263 60.206 292.21 60.0666 292.136 59.8866C291.99 59.5262 291.766 59.005 291.462 58.3801C290.853 57.1251 289.935 55.4783 288.7 53.8804C286.202 50.6508 282.645 47.9022 277.862 48.4338L275.729 48.6708L276.087 46.5558L276.087 46.5554L276.087 46.5552L276.088 46.5516L276.091 46.532L276.104 46.4464C276.111 46.4038 276.12 46.3491 276.13 46.2827C276.138 46.2281 276.147 46.1657 276.157 46.0956C276.203 45.7847 276.266 45.3232 276.336 44.7321C276.476 43.5493 276.642 41.8503 276.747 39.8015C276.958 35.6943 276.917 30.227 275.934 24.7117C274.948 19.1833 273.038 13.7275 269.601 9.53006C266.205 5.38295 261.242 2.36487 253.893 1.77755C238.883 0.577957 229.708 6.401 224.246 12.4477C221.494 15.4948 219.668 18.622 218.53 20.9879C217.963 22.169 217.569 23.1548 217.32 23.8379C217.195 24.1792 217.107 24.4444 217.051 24.6199C217.023 24.7077 217.003 24.7729 216.991 24.8141L216.978 24.8574L216.976 24.8631L216.976 24.8645L216.976 24.865L216.976 24.8653L216.284 27.3423L214.351 25.6447L214.35 25.6445L214.35 25.644L214.35 25.6438L214.342 25.6373L214.305 25.6054C214.271 25.576 214.217 25.5306 214.146 25.4707C214.002 25.3509 213.785 25.1731 213.501 24.9491C212.933 24.501 212.097 23.8697 211.042 23.1497C208.926 21.7062 205.957 19.9242 202.517 18.5418C195.611 15.767 187.136 14.7074 179.697 20.7109C172.034 26.896 169.687 34.5188 169.244 40.6428C169.022 43.7155 169.282 46.4039 169.597 48.3216C169.755 49.2787 169.925 50.0392 170.054 50.5536C170.119 50.8107 170.173 51.006 170.209 51.1333C170.228 51.1969 170.242 51.2434 170.25 51.2722L170.26 51.3019L170.26 51.3042L170.261 51.3054L170.261 51.3062L170.261 51.3065L171.048 53.7425L168.511 53.4064L168.51 53.4063L168.509 53.4062L168.508 53.4061L168.508 53.406L168.487 53.4036C168.466 53.4011 168.431 53.3972 168.384 53.3923C168.288 53.3825 168.14 53.369 167.947 53.3559C167.56 53.3297 166.992 53.3053 166.295 53.3155C164.893 53.3361 162.997 53.4961 160.994 54.0437C157.024 55.1289 152.7 57.6979 150.807 63.7921L150.49 64.8112L149.43 64.9216L149.429 64.9216L149.429 64.9217L149.429 64.9217L149.422 64.9224L149.384 64.9268C149.348 64.9309 149.292 64.9377 149.217 64.9474C149.066 64.9669 148.84 64.9982 148.548 65.0445C147.964 65.137 147.12 65.2887 146.1 65.5236C144.053 65.9946 141.326 66.7928 138.572 68.099C133.47 70.5195 128.519 74.5478 127.287 81.2916H132.917H316.935C316.843 80.7367 316.717 80.0701 316.547 79.322C316.034 77.0638 315.124 74.1079 313.547 71.248C311.97 68.3908 309.757 65.6814 306.652 63.8253C303.567 61.9812 299.489 60.9103 294.045 61.4985Z" fill="white" fill-opacity="0.4" stroke="white" stroke-width="2.42777"/>
<path d="M595.969 174.529L594.349 174.805L594.098 173.182L594.098 173.182L594.098 173.181L594.097 173.18L594.096 173.17L594.087 173.118C594.079 173.07 594.067 172.997 594.049 172.899C594.014 172.704 593.958 172.414 593.88 172.045C593.724 171.305 593.477 170.251 593.116 169.011C592.39 166.518 591.222 163.329 589.449 160.43C587.671 157.524 585.358 155.028 582.39 153.725C579.476 152.447 575.711 152.221 570.782 154.255L569.236 154.893L568.65 153.329L568.65 153.329L568.65 153.328L568.649 153.327L568.648 153.325L568.637 153.296C568.632 153.282 568.625 153.264 568.616 153.242C568.607 153.22 568.597 153.195 568.585 153.166C568.536 153.047 568.46 152.868 568.356 152.638C568.147 152.178 567.827 151.52 567.39 150.75C566.513 149.202 565.188 147.242 563.383 145.522C561.583 143.807 559.344 142.366 556.622 141.765C553.918 141.169 550.6 141.371 546.567 143.162L544.324 144.158L544.292 141.705V141.704L544.292 141.704L544.292 141.7L544.292 141.678L544.289 141.582C544.287 141.496 544.283 141.365 544.277 141.193C544.264 140.848 544.24 140.336 544.197 139.683C544.11 138.376 543.947 136.504 543.639 134.26C543.021 129.763 541.828 123.818 539.535 117.957C537.24 112.087 533.88 106.396 528.983 102.295C524.124 98.2257 517.666 95.6456 508.974 96.1027C491.632 97.0147 483.128 107.874 478.881 118.753C476.751 124.209 475.718 129.629 475.22 133.698C474.971 135.728 474.857 137.413 474.805 138.584C474.779 139.17 474.769 139.627 474.765 139.934C474.763 140.087 474.762 140.203 474.763 140.279L474.763 140.363L474.763 140.381L474.763 140.384L474.763 140.384L474.763 140.385L474.787 142.044L473.129 142.026H473.129L473.128 142.026L473.127 142.026L473.122 142.026L473.084 142.026C473.048 142.026 472.99 142.027 472.912 142.028C472.756 142.032 472.52 142.04 472.218 142.059C471.611 142.098 470.741 142.179 469.708 142.35C467.63 142.695 464.957 143.394 462.455 144.793C459.969 146.184 457.68 148.249 456.269 151.343C454.857 154.44 454.25 158.73 455.416 164.699L455.67 166.001L454.452 166.503C454.453 166.502 454.452 166.503 454.45 166.503L454.42 166.517C454.388 166.531 454.333 166.557 454.259 166.594C454.111 166.668 453.886 166.789 453.61 166.961C453.055 167.307 452.304 167.852 451.548 168.638C450.055 170.19 448.505 172.711 448.434 176.631L448.411 177.871L447.212 178.17L447.212 178.17L447.211 178.17L447.211 178.171L447.21 178.171L447.197 178.174C447.181 178.179 447.153 178.186 447.114 178.198C447.035 178.22 446.913 178.257 446.753 178.311C446.431 178.417 445.961 178.589 445.394 178.842C444.256 179.349 442.752 180.17 441.282 181.421C438.604 183.7 435.96 187.463 435.938 193.637H484.634H620.749C620.677 193.032 620.569 192.287 620.408 191.445C619.959 189.109 619.106 186.08 617.502 183.21C615.903 180.349 613.583 177.688 610.198 175.983C606.822 174.283 602.237 173.459 595.969 174.529Z" fill="white" fill-opacity="0.4" stroke="white" stroke-width="2.42777"/>
<path d="M940.572 64.299L938.319 64.8916L938.55 62.5762L938.55 62.5751L938.55 62.5746L938.55 62.5742L938.55 62.5729L938.551 62.557C938.553 62.539 938.555 62.5085 938.558 62.4666C938.564 62.3826 938.572 62.2527 938.577 62.0836C938.589 61.7449 938.592 61.2526 938.559 60.6599C938.493 59.4638 938.281 57.9135 937.721 56.4046C937.163 54.9013 936.284 53.5011 934.917 52.494C933.567 51.4988 931.601 50.7848 928.673 50.8791L927.232 50.9255L927.02 49.501L927.02 49.5004L927.02 49.4997L927.02 49.4992L927.02 49.4988L927.018 49.484C927.015 49.4687 927.011 49.4434 927.005 49.4088C926.993 49.3396 926.974 49.2333 926.947 49.0957C926.893 48.8201 926.806 48.4216 926.679 47.9459C926.424 46.9856 926.018 45.7535 925.413 44.5923C924.802 43.4182 924.045 42.4257 923.14 41.8133C922.29 41.2383 921.233 40.9403 919.798 41.2588L918.074 41.6415L917.843 39.8932L917.843 39.8926L917.843 39.8913L917.842 39.8839L917.835 39.8367C917.828 39.7923 917.817 39.7224 917.802 39.6287C917.77 39.4413 917.719 39.1593 917.644 38.7971C917.494 38.0722 917.245 37.0293 916.859 35.7834C916.084 33.2847 914.764 30.0078 912.589 26.8464C910.418 23.6913 907.411 20.6726 903.253 18.632C899.104 16.5956 893.712 15.4849 886.687 16.2871C875.999 17.5071 868.647 24.9441 863.894 32.361C861.53 36.0493 859.852 39.6677 858.766 42.3674C858.224 43.7152 857.831 44.8288 857.576 45.6007C857.448 45.9866 857.354 46.2866 857.293 46.4875C857.263 46.5879 857.241 46.6635 857.226 46.7125L857.211 46.766L857.208 46.7774L857.208 46.7784L857.207 46.7791L857.207 46.7792L856.843 48.0929L855.487 47.9559L855.487 47.9559L855.486 47.9558L855.485 47.9557L855.473 47.9546L855.409 47.949C855.349 47.9441 855.255 47.937 855.13 47.9292C854.879 47.9135 854.502 47.8952 854.015 47.8863C853.042 47.8685 851.635 47.8884 849.929 48.042C846.51 48.3496 841.928 49.1904 837.236 51.3097C828.233 55.3767 818.577 64.2544 816.17 83.8932H838.134H968.377C968.13 83.3072 967.828 82.6217 967.469 81.8639C966.286 79.3633 964.503 76.1082 962.098 73.0375C957.27 66.8727 950.223 61.7614 940.572 64.299Z" fill="white" fill-opacity="0.4" stroke="white" stroke-width="2.42777"/>
<path d="M1264.11 210.062L1265.25 209.967C1271.41 209.453 1274.92 212.466 1276.99 215.693C1278.04 217.333 1278.7 219.023 1279.11 220.314C1279.13 220.388 1279.15 220.461 1279.17 220.532H1164.73H1102.24C1103.74 217.145 1106.94 214.747 1110.22 213.107C1112.13 212.154 1113.98 211.502 1115.35 211.09C1116.04 210.884 1116.6 210.739 1116.99 210.647C1117.18 210.6 1117.33 210.567 1117.43 210.546C1117.48 210.536 1117.52 210.528 1117.54 210.524L1117.56 210.519L1117.57 210.518L1117.57 210.518L1117.57 210.518L1117.57 210.518L1118.53 210.333L1118.81 209.394C1120.04 205.299 1121.74 202.739 1123.5 201.147C1125.25 199.561 1127.15 198.853 1128.92 198.604C1130.71 198.353 1132.39 198.571 1133.64 198.864C1134.26 199.01 1134.76 199.171 1135.1 199.293C1135.27 199.354 1135.39 199.404 1135.48 199.438C1135.52 199.454 1135.55 199.467 1135.56 199.474L1135.58 199.48L1135.58 199.48L1135.58 199.481L1135.58 199.481L1135.58 199.481L1137.38 200.308L1137.83 198.367C1138.48 195.481 1139.67 193.584 1141 192.319C1142.35 191.045 1143.93 190.33 1145.48 189.95C1147.04 189.568 1148.54 189.532 1149.67 189.598C1150.22 189.63 1150.68 189.687 1150.99 189.734C1151.14 189.758 1151.26 189.779 1151.33 189.794C1151.37 189.801 1151.4 189.806 1151.41 189.809L1151.42 189.812L1151.42 189.812L1151.43 189.812L1151.43 189.812L1151.43 189.813L1153.26 190.229L1264.11 210.062ZM1264.11 210.062L1263.64 209.022M1264.11 210.062L1263.64 209.022M1153.4 188.351L1153.4 188.351L1153.4 188.351ZM1153.4 188.351L1153.4 188.349L1153.4 188.333L1153.4 188.259C1153.41 188.191 1153.42 188.087 1153.43 187.95C1153.46 187.675 1153.51 187.266 1153.57 186.742C1153.71 185.693 1153.95 184.186 1154.34 182.374C1155.11 178.742 1156.47 173.922 1158.84 169.12C1163.57 159.547 1172.16 150.193 1188.03 150.193C1203.98 150.193 1213.15 158.93 1218.42 167.795C1221.07 172.244 1222.71 176.708 1223.69 180.068C1224.18 181.744 1224.5 183.138 1224.7 184.107C1224.8 184.591 1224.87 184.969 1224.91 185.222C1224.93 185.348 1224.95 185.443 1224.96 185.505L1224.97 185.572L1224.97 185.587L1224.97 185.588L1224.97 185.589L1224.97 185.589L1225.25 187.56L1227.12 186.885C1232.01 185.121 1235.71 185.278 1238.52 186.331C1241.35 187.391 1243.48 189.437 1245.08 191.802C1246.68 194.171 1247.7 196.788 1248.32 198.842C1248.63 199.864 1248.84 200.731 1248.96 201.338C1249.03 201.642 1249.07 201.879 1249.1 202.037C1249.11 202.116 1249.12 202.175 1249.13 202.213L1249.13 202.253L1249.13 202.259L1249.13 202.26L1249.13 202.26L1249.13 202.261L1249.47 204.599L1251.53 203.441C1253.53 202.318 1255.19 202.155 1256.55 202.424C1257.96 202.7 1259.21 203.463 1260.29 204.448C1261.37 205.433 1262.22 206.581 1262.8 207.502C1263.09 207.959 1263.3 208.35 1263.45 208.622C1263.52 208.758 1263.57 208.863 1263.6 208.932C1263.62 208.966 1263.63 208.991 1263.64 209.006L1263.64 209.019M1153.4 188.351L1263.64 209.019M1263.64 209.022L1263.64 209.021M1263.64 209.022L1263.64 209.021M1263.64 209.021L1263.64 209.02M1263.64 209.021L1263.64 209.02M1263.64 209.02L1263.64 209.02M1263.64 209.02L1263.64 209.02M1263.64 209.02L1263.64 209.019M1263.64 209.02L1263.64 209.019" fill="white" fill-opacity="0.4" stroke="white" stroke-width="2.42777"/>
<path d="M13 242.502H173.243" stroke="white" stroke-width="19.4222" stroke-miterlimit="10" stroke-linecap="round"/>
<path d="M222.109 242.502H247.358" stroke="white" stroke-width="19.4222" stroke-miterlimit="10" stroke-linecap="round"/>
<path d="M434.319 29.9082H465.845" stroke="white" stroke-width="19.4222" stroke-miterlimit="10" stroke-linecap="round"/>
<path d="M537.921 29.9082H663.557" stroke="white" stroke-width="19.4222" stroke-miterlimit="10" stroke-linecap="round"/>
<path d="M952.271 222.15H755.288" stroke="white" stroke-width="19.4222" stroke-miterlimit="10" stroke-linecap="round"/>
<path d="M716.324 222.15H692.091" stroke="white" stroke-width="19.4222" stroke-miterlimit="10" stroke-linecap="round"/>
<path d="M1130.96 29.9082H1208.14" stroke="white" stroke-width="19.4222" stroke-miterlimit="10" stroke-linecap="round"/>
<path d="M1256.48 29.9082H1419.64" stroke="white" stroke-width="19.4222" stroke-miterlimit="10" stroke-linecap="round"/>
<path d="M387.132 167.178H474.133" stroke="white" stroke-width="19.4222" stroke-miterlimit="10" stroke-linecap="round"/>
<path d="M1241.07 253H1348.42" stroke="white" stroke-width="19.4222" stroke-miterlimit="10" stroke-linecap="round"/>
<path d="M1390.09 253H1440" stroke="white" stroke-width="19.4222" stroke-miterlimit="10" stroke-linecap="round"/>
</g>
</svg>
