<svg width="140" height="139" viewBox="0 0 140 139" fill="none" xmlns="http://www.w3.org/2000/svg">
<path d="M12.0773 125.7C12.0773 124.464 12.3533 123.36 12.9053 122.388C13.4693 121.404 14.2313 120.642 15.1913 120.102C16.1633 119.55 17.2493 119.274 18.4493 119.274C19.8533 119.274 21.0833 119.634 22.1393 120.354C23.1953 121.074 23.9333 122.07 24.3533 123.342H21.4553C21.1673 122.742 20.7593 122.292 20.2313 121.992C19.7153 121.692 19.1153 121.542 18.4313 121.542C17.6993 121.542 17.0453 121.716 16.4693 122.064C15.9053 122.4 15.4613 122.88 15.1373 123.504C14.8253 124.128 14.6693 124.86 14.6693 125.7C14.6693 126.528 14.8253 127.26 15.1373 127.896C15.4613 128.52 15.9053 129.006 16.4693 129.354C17.0453 129.69 17.6993 129.858 18.4313 129.858C19.1153 129.858 19.7153 129.708 20.2313 129.408C20.7593 129.096 21.1673 128.64 21.4553 128.04H24.3533C23.9333 129.324 23.1953 130.326 22.1393 131.046C21.0953 131.754 19.8653 132.108 18.4493 132.108C17.2493 132.108 16.1633 131.838 15.1913 131.298C14.2313 130.746 13.4693 129.984 12.9053 129.012C12.3533 128.04 12.0773 126.936 12.0773 125.7ZM29.0257 123.576C29.3497 123.048 29.7697 122.634 30.2857 122.334C30.8137 122.034 31.4137 121.884 32.0857 121.884V124.53H31.4197C30.6277 124.53 30.0277 124.716 29.6197 125.088C29.2237 125.46 29.0257 126.108 29.0257 127.032V132H26.5057V122.028H29.0257V123.576ZM43.053 126.798C43.053 127.158 43.029 127.482 42.981 127.77H35.691C35.751 128.49 36.003 129.054 36.447 129.462C36.891 129.87 37.437 130.074 38.085 130.074C39.021 130.074 39.687 129.672 40.083 128.868H42.801C42.513 129.828 41.961 130.62 41.145 131.244C40.329 131.856 39.327 132.162 38.139 132.162C37.179 132.162 36.315 131.952 35.547 131.532C34.791 131.1 34.197 130.494 33.765 129.714C33.345 128.934 33.135 128.034 33.135 127.014C33.135 125.982 33.345 125.076 33.765 124.296C34.185 123.516 34.773 122.916 35.529 122.496C36.285 122.076 37.155 121.866 38.139 121.866C39.087 121.866 39.933 122.07 40.677 122.478C41.433 122.886 42.015 123.468 42.423 124.224C42.843 124.968 43.053 125.826 43.053 126.798ZM40.443 126.078C40.431 125.43 40.197 124.914 39.741 124.53C39.285 124.134 38.727 123.936 38.067 123.936C37.443 123.936 36.915 124.128 36.483 124.512C36.063 124.884 35.805 125.406 35.709 126.078H40.443ZM44.2444 126.978C44.2444 125.97 44.4424 125.076 44.8384 124.296C45.2464 123.516 45.7924 122.916 46.4764 122.496C47.1724 122.076 47.9464 121.866 48.7984 121.866C49.5424 121.866 50.1904 122.016 50.7424 122.316C51.3064 122.616 51.7564 122.994 52.0924 123.45V122.028H54.6304V132H52.0924V130.542C51.7684 131.01 51.3184 131.4 50.7424 131.712C50.1784 132.012 49.5244 132.162 48.7804 132.162C47.9404 132.162 47.1724 131.946 46.4764 131.514C45.7924 131.082 45.2464 130.476 44.8384 129.696C44.4424 128.904 44.2444 127.998 44.2444 126.978ZM52.0924 127.014C52.0924 126.402 51.9724 125.88 51.7324 125.448C51.4924 125.004 51.1684 124.668 50.7604 124.44C50.3524 124.2 49.9144 124.08 49.4464 124.08C48.9784 124.08 48.5464 124.194 48.1504 124.422C47.7544 124.65 47.4304 124.986 47.1784 125.43C46.9384 125.862 46.8184 126.378 46.8184 126.978C46.8184 127.578 46.9384 128.106 47.1784 128.562C47.4304 129.006 47.7544 129.348 48.1504 129.588C48.5584 129.828 48.9904 129.948 49.4464 129.948C49.9144 129.948 50.3524 129.834 50.7604 129.606C51.1684 129.366 51.4924 129.03 51.7324 128.598C51.9724 128.154 52.0924 127.626 52.0924 127.014ZM60.0256 124.098V128.922C60.0256 129.258 60.1036 129.504 60.2596 129.66C60.4276 129.804 60.7036 129.876 61.0876 129.876H62.2576V132H60.6736C58.5496 132 57.4876 130.968 57.4876 128.904V124.098H56.2996V122.028H57.4876V119.562H60.0256V122.028H62.2576V124.098H60.0256ZM73.3401 126.798C73.3401 127.158 73.3161 127.482 73.2681 127.77H65.9781C66.0381 128.49 66.2901 129.054 66.7341 129.462C67.1781 129.87 67.7241 130.074 68.3721 130.074C69.3081 130.074 69.9741 129.672 70.3701 128.868H73.0881C72.8001 129.828 72.2481 130.62 71.4321 131.244C70.6161 131.856 69.6141 132.162 68.4261 132.162C67.4661 132.162 66.6021 131.952 65.8341 131.532C65.0781 131.1 64.4841 130.494 64.0521 129.714C63.6321 128.934 63.4221 128.034 63.4221 127.014C63.4221 125.982 63.6321 125.076 64.0521 124.296C64.4721 123.516 65.0601 122.916 65.8161 122.496C66.5721 122.076 67.4421 121.866 68.4261 121.866C69.3741 121.866 70.2201 122.07 70.9641 122.478C71.7201 122.886 72.3021 123.468 72.7101 124.224C73.1301 124.968 73.3401 125.826 73.3401 126.798ZM70.7301 126.078C70.7181 125.43 70.4841 124.914 70.0281 124.53C69.5721 124.134 69.0141 123.936 68.3541 123.936C67.7301 123.936 67.2021 124.128 66.7701 124.512C66.3501 124.884 66.0921 125.406 65.9961 126.078H70.7301ZM78.8206 126.978C78.8206 125.97 79.0186 125.076 79.4146 124.296C79.8226 123.516 80.3746 122.916 81.0706 122.496C81.7666 122.076 82.5406 121.866 83.3926 121.866C84.0406 121.866 84.6586 122.01 85.2466 122.298C85.8346 122.574 86.3026 122.946 86.6506 123.414V118.68H89.2066V132H86.6506V130.524C86.3386 131.016 85.9006 131.412 85.3366 131.712C84.7726 132.012 84.1186 132.162 83.3746 132.162C82.5346 132.162 81.7666 131.946 81.0706 131.514C80.3746 131.082 79.8226 130.476 79.4146 129.696C79.0186 128.904 78.8206 127.998 78.8206 126.978ZM86.6686 127.014C86.6686 126.402 86.5486 125.88 86.3086 125.448C86.0686 125.004 85.7446 124.668 85.3366 124.44C84.9286 124.2 84.4906 124.08 84.0226 124.08C83.5546 124.08 83.1226 124.194 82.7266 124.422C82.3306 124.65 82.0066 124.986 81.7546 125.43C81.5146 125.862 81.3946 126.378 81.3946 126.978C81.3946 127.578 81.5146 128.106 81.7546 128.562C82.0066 129.006 82.3306 129.348 82.7266 129.588C83.1346 129.828 83.5666 129.948 84.0226 129.948C84.4906 129.948 84.9286 129.834 85.3366 129.606C85.7446 129.366 86.0686 129.03 86.3086 128.598C86.5486 128.154 86.6686 127.626 86.6686 127.014ZM100.938 126.798C100.938 127.158 100.914 127.482 100.866 127.77H93.5758C93.6358 128.49 93.8878 129.054 94.3318 129.462C94.7758 129.87 95.3218 130.074 95.9698 130.074C96.9058 130.074 97.5718 129.672 97.9678 128.868H100.686C100.398 129.828 99.8458 130.62 99.0298 131.244C98.2138 131.856 97.2118 132.162 96.0238 132.162C95.0638 132.162 94.1998 131.952 93.4318 131.532C92.6758 131.1 92.0818 130.494 91.6498 129.714C91.2298 128.934 91.0198 128.034 91.0198 127.014C91.0198 125.982 91.2298 125.076 91.6498 124.296C92.0698 123.516 92.6578 122.916 93.4138 122.496C94.1698 122.076 95.0398 121.866 96.0238 121.866C96.9718 121.866 97.8178 122.07 98.5618 122.478C99.3178 122.886 99.8998 123.468 100.308 124.224C100.728 124.968 100.938 125.826 100.938 126.798ZM98.3278 126.078C98.3158 125.43 98.0818 124.914 97.6258 124.53C97.1698 124.134 96.6118 123.936 95.9518 123.936C95.3278 123.936 94.7998 124.128 94.3678 124.512C93.9478 124.884 93.6898 125.406 93.5938 126.078H98.3278ZM102.129 126.978C102.129 125.97 102.327 125.076 102.723 124.296C103.131 123.516 103.677 122.916 104.361 122.496C105.057 122.076 105.831 121.866 106.683 121.866C107.427 121.866 108.075 122.016 108.627 122.316C109.191 122.616 109.641 122.994 109.977 123.45V122.028H112.515V132H109.977V130.542C109.653 131.01 109.203 131.4 108.627 131.712C108.063 132.012 107.409 132.162 106.665 132.162C105.825 132.162 105.057 131.946 104.361 131.514C103.677 131.082 103.131 130.476 102.723 129.696C102.327 128.904 102.129 127.998 102.129 126.978ZM109.977 127.014C109.977 126.402 109.857 125.88 109.617 125.448C109.377 125.004 109.053 124.668 108.645 124.44C108.237 124.2 107.799 124.08 107.331 124.08C106.863 124.08 106.431 124.194 106.035 124.422C105.639 124.65 105.315 124.986 105.063 125.43C104.823 125.862 104.703 126.378 104.703 126.978C104.703 127.578 104.823 128.106 105.063 128.562C105.315 129.006 105.639 129.348 106.035 129.588C106.443 129.828 106.875 129.948 107.331 129.948C107.799 129.948 108.237 129.834 108.645 129.606C109.053 129.366 109.377 129.03 109.617 128.598C109.857 128.154 109.977 127.626 109.977 127.014ZM117.496 118.68V132H114.976V118.68H117.496ZM123.802 132.162C122.986 132.162 122.254 132.018 121.606 131.73C120.958 131.43 120.442 131.028 120.058 130.524C119.686 130.02 119.482 129.462 119.446 128.85H121.984C122.032 129.234 122.218 129.552 122.542 129.804C122.878 130.056 123.292 130.182 123.784 130.182C124.264 130.182 124.636 130.086 124.9 129.894C125.176 129.702 125.314 129.456 125.314 129.156C125.314 128.832 125.146 128.592 124.81 128.436C124.486 128.268 123.964 128.088 123.244 127.896C122.5 127.716 121.888 127.53 121.408 127.338C120.94 127.146 120.532 126.852 120.184 126.456C119.848 126.06 119.68 125.526 119.68 124.854C119.68 124.302 119.836 123.798 120.148 123.342C120.472 122.886 120.928 122.526 121.516 122.262C122.116 121.998 122.818 121.866 123.622 121.866C124.81 121.866 125.758 122.166 126.466 122.766C127.174 123.354 127.564 124.152 127.636 125.16H125.224C125.188 124.764 125.02 124.452 124.72 124.224C124.432 123.984 124.042 123.864 123.55 123.864C123.094 123.864 122.74 123.948 122.488 124.116C122.248 124.284 122.128 124.518 122.128 124.818C122.128 125.154 122.296 125.412 122.632 125.592C122.968 125.76 123.49 125.934 124.198 126.114C124.918 126.294 125.512 126.48 125.98 126.672C126.448 126.864 126.85 127.164 127.186 127.572C127.534 127.968 127.714 128.496 127.726 129.156C127.726 129.732 127.564 130.248 127.24 130.704C126.928 131.16 126.472 131.52 125.872 131.784C125.284 132.036 124.594 132.162 123.802 132.162Z" fill="#2E2828"/>
<g filter="url(#filter0_d)">
<ellipse cx="70" cy="58.5" rx="48" ry="48.5" fill="white"/>
</g>
<path d="M101.801 59.5165C101.369 59.5291 100.928 59.7548 100.757 60.1344L99.7765 62.3273L97.3409 54.341C97.2207 53.9478 96.8416 53.6617 96.3884 53.6214C95.9267 53.5772 95.5003 53.7962 95.2963 54.1601L92.3014 59.5165H90.6177C92.1551 56.8006 92.9811 53.784 92.9811 50.6666C92.9811 39.8226 83.1157 31 70.9886 31C58.8615 31 48.9961 39.8226 48.9961 50.6666C48.9961 53.7851 49.8229 56.8026 51.3611 59.5191L51.2179 59.5165C50.7754 59.5291 50.3448 59.7548 50.1741 60.1344L49.1936 62.3273L46.7581 54.341C46.6378 53.9478 46.2587 53.6617 45.8055 53.6214C45.3394 53.5772 44.9175 53.7962 44.7135 54.1601L41.7185 59.5165H38V61.4832H42.3985C42.8151 61.4832 43.1953 61.2729 43.3821 60.9397L45.3935 57.3415L47.9352 65.6754C48.0598 66.083 48.4614 66.374 48.934 66.3985C48.9543 66.3995 48.9759 66.4 48.9962 66.4C49.4441 66.4 49.85 66.1566 50.0175 65.7821L51.9343 61.4968L52.672 61.5101C53.2364 62.2683 53.8431 63.0048 54.5287 63.694C54.5588 63.7996 54.6093 63.9018 54.6791 63.9955C58.2883 68.8363 58.4988 69.8393 59.1249 72.8172C59.2409 73.364 59.3686 73.9715 59.5308 74.6705C59.8106 75.8902 60.6091 76.8832 61.6845 77.5045C61.3131 77.9817 61.0921 78.5591 61.0921 79.1834C61.0921 80.231 61.7102 81.147 62.6331 81.6703C62.3603 82.0996 62.1917 82.5886 62.1917 83.1167C62.1917 84.1643 62.8099 85.0803 63.7327 85.6037C63.4599 86.0329 63.2914 86.522 63.2914 87.05C63.2914 88.6767 64.7712 90 66.5902 90H75.3872C77.2063 90 78.6861 88.6767 78.6861 87.05C78.6861 86.522 78.5176 86.033 78.2447 85.6037C79.1676 85.0802 79.7857 84.1643 79.7857 83.1167C79.7857 82.5886 79.6172 82.0997 79.3444 81.6703C80.2672 81.1468 80.8853 80.231 80.8853 79.1834C80.8853 78.5591 80.6645 77.9819 80.2931 77.5046C81.3685 76.8836 82.1668 75.8913 82.4467 74.673C82.6089 73.9715 82.7366 73.3642 82.8526 72.8172C83.4787 69.8393 83.6891 68.8363 87.2984 63.9955C87.3682 63.9018 87.4186 63.7996 87.4487 63.694C88.1425 62.9967 88.7559 62.2513 89.3255 61.4835H92.9812C93.3978 61.4835 93.778 61.2731 93.9648 60.9399L95.9762 57.3418L98.518 65.6756C98.6425 66.0832 99.0441 66.3743 99.5167 66.3987C99.537 66.3997 99.5586 66.4002 99.579 66.4002C100.027 66.4002 100.433 66.1568 100.6 65.7823L102.517 61.4971L103.955 61.523L104 59.5564L101.801 59.5165ZM75.3872 88.0331H66.5902C65.9835 88.0331 65.4906 87.5918 65.4906 87.0498C65.4906 86.5077 65.9835 86.0664 66.5902 86.0664H75.3872C75.9939 86.0664 76.4868 86.5077 76.4868 87.0498C76.4868 87.5918 75.9939 88.0331 75.3872 88.0331ZM76.4868 84.0998H75.3872H66.5902H65.4906C64.8839 84.0998 64.391 83.6585 64.391 83.1164C64.391 82.5744 64.8839 82.1331 65.4906 82.1331H76.4868C77.0936 82.1331 77.5865 82.5744 77.5865 83.1164C77.5865 83.6585 77.0936 84.0998 76.4868 84.0998ZM77.5865 80.1665H76.4868H65.4906H64.391C63.7843 80.1665 63.2914 79.7252 63.2914 79.1831C63.2914 78.6411 63.7843 78.1998 64.391 78.1998H77.5865C78.1932 78.1998 78.6861 78.6411 78.6861 79.1831C78.6861 79.7252 78.1932 80.1665 77.5865 80.1665ZM85.4073 62.7748C85.2279 62.9453 85.1259 63.1637 85.1098 63.3884C81.593 68.1625 81.3212 69.4579 80.691 72.4535C80.5783 72.9893 80.4526 73.5852 80.2926 74.2756C80.0285 75.4279 78.9556 76.2331 77.6853 76.2331H77.5865H75.5978L78.5085 61.4832H79.7857C81.6048 61.4832 83.0846 60.1599 83.0846 58.5332V54.5999H86.3835C86.9913 54.5999 87.4831 54.1596 87.4831 53.6166V48.6999C87.4831 47.0733 86.0033 45.7499 84.1842 45.7499V42.8C84.1842 41.1733 82.7044 39.85 80.8853 39.85H79.7857C79.7857 38.2233 78.3059 36.9 76.4868 36.9H73.188C72.5802 36.9 72.0884 37.3403 72.0884 37.8833V60.4999C72.0884 61.0429 72.5802 61.4832 73.188 61.4832H76.2763L73.3656 76.2331H68.612L65.7013 61.4832H68.7895C69.3973 61.4832 69.8891 61.0429 69.8891 60.4999V37.8833C69.8891 37.3403 69.3973 36.9 68.7895 36.9H65.4906C63.6716 36.9 62.1917 38.2233 62.1917 39.85H61.0921C59.2731 39.85 57.7932 41.1733 57.7932 42.8V45.7499C55.9742 45.7499 54.4944 47.0733 54.4944 48.6999V55.5832C54.4944 56.1263 54.9862 56.5666 55.594 56.5666H58.8929V58.5332C58.8929 60.1599 60.3727 61.4832 62.1917 61.4832H63.4689L66.3797 76.2331H64.391H64.2922C63.0218 76.2331 61.949 75.4279 61.6848 74.2732C61.5248 73.5852 61.3992 72.9894 61.2865 72.4535C60.6561 69.4579 60.3844 68.1625 56.8676 63.3884C56.8515 63.1637 56.7496 62.9453 56.5702 62.7748C53.1038 59.4916 51.1955 55.1919 51.1955 50.6666C51.1955 40.9068 60.0752 32.9667 70.9887 32.9667C81.9022 32.9667 90.782 40.9068 90.782 50.6666C90.782 55.1919 88.8737 59.4916 85.4073 62.7748ZM78.6861 47.7166V44.7666C78.6861 44.2236 78.1943 43.7833 77.5865 43.7833H74.2876V38.8666H76.4868C77.0936 38.8666 77.5865 39.3079 77.5865 39.85V40.8333C77.5865 41.3763 78.0783 41.8166 78.6861 41.8166H80.8853C81.4921 41.8166 81.985 42.2579 81.985 42.8V46.7333C81.985 47.2763 82.4768 47.7166 83.0846 47.7166H84.1842C84.7909 47.7166 85.2838 48.1579 85.2838 48.6999V52.6332H81.985H77.5865C76.9787 52.6332 76.4868 53.0735 76.4868 53.6166V55.5832H78.6861V54.5999H80.8853V58.5332C80.8853 59.0753 80.3924 59.5165 79.7857 59.5165H74.2876V45.7499H76.4868V47.7166H78.6861ZM59.9925 50.6666C59.3847 50.6666 58.8929 51.1069 58.8929 51.6499V54.5999H56.6936V48.6999C56.6936 48.1579 57.1865 47.7166 57.7932 47.7166H58.8929C59.5007 47.7166 59.9925 47.2763 59.9925 46.7333V42.8C59.9925 42.2579 60.4854 41.8166 61.0921 41.8166H62.1917V43.7833H64.391V40.8333V39.85C64.391 39.3079 64.8839 38.8666 65.4906 38.8666H67.6899V59.5165H62.1917C61.585 59.5165 61.0921 59.0753 61.0921 58.5332V55.5832V52.6332H63.2914V50.6666H59.9925Z" fill="black"/>
<defs>
<filter id="filter0_d" x="7" y="0" width="126" height="127" filterUnits="userSpaceOnUse" color-interpolation-filters="sRGB">
<feFlood flood-opacity="0" result="BackgroundImageFix"/>
<feColorMatrix in="SourceAlpha" type="matrix" values="0 0 0 0 0 0 0 0 0 0 0 0 0 0 0 0 0 0 127 0"/>
<feOffset dy="5"/>
<feGaussianBlur stdDeviation="7.5"/>
<feColorMatrix type="matrix" values="0 0 0 0 0 0 0 0 0 0 0 0 0 0 0 0 0 0 0.25 0"/>
<feBlend mode="normal" in2="BackgroundImageFix" result="effect1_dropShadow"/>
<feBlend mode="normal" in="SourceGraphic" in2="effect1_dropShadow" result="shape"/>
</filter>
</defs>
</svg>
