<svg width="78" height="72" viewBox="0 0 78 72" fill="none" xmlns="http://www.w3.org/2000/svg">
<path d="M58.3563 20.1241C56.0255 19.1363 55.3522 18.539 55.3522 17.4604C55.3522 16.5971 55.9706 15.5887 57.7142 15.5887C59.2564 15.5887 60.4391 16.2315 60.4497 16.2371C60.5741 16.3073 60.7137 16.3447 60.852 16.3447C61.1895 16.3447 61.488 16.1288 61.6118 15.7946L62.0354 14.6497C62.183 14.2325 61.9592 13.869 61.6738 13.7386C60.7243 13.3016 58.8686 12.9635 58.8497 12.96C58.8198 12.9544 58.7158 12.9309 58.7158 12.8024L58.7098 11.1415C58.7098 10.6413 58.3148 10.2341 57.8298 10.2341H57.0698C56.5853 10.2341 56.1904 10.6411 56.1904 11.1417L56.1924 12.8879C56.1924 13.0218 56.0552 13.0799 56.0051 13.0922C53.6626 13.6821 52.1987 15.4962 52.1987 17.7844C52.1987 20.6369 54.429 21.9259 56.8372 22.8934C58.7624 23.6925 59.5477 24.5027 59.5477 25.6911C59.5477 26.9843 58.4355 27.8875 56.842 27.8875C55.4814 27.8875 53.64 26.9757 53.6218 26.9664C53.5039 26.9074 53.379 26.8776 53.2507 26.8776C52.9002 26.8776 52.5951 27.1017 52.4731 27.4487L52.0686 28.6066C51.9248 29.0389 52.1462 29.3899 52.4295 29.5461C53.5604 30.1687 55.7488 30.5336 55.8461 30.5496C55.8723 30.5536 56.0055 30.6031 56.0055 30.7319V32.4704C56.0055 32.9706 56.4006 33.3778 56.8858 33.3778H57.6711C58.1565 33.3778 58.5516 32.9708 58.5516 32.4704V30.6408C58.5516 30.4697 58.6709 30.4546 58.6956 30.4483C61.191 29.8556 62.7282 27.9254 62.7282 25.5017C62.7275 23.0122 61.4199 21.4036 58.3563 20.1241Z" fill="#FFB20F"/>
<path d="M57.3749 0C45.9834 0 36.7495 9.76289 36.7495 21.8054C36.7495 33.8481 45.9834 43.6112 57.3749 43.6112C68.766 43.6112 78.0001 33.8481 78.0001 21.8054C78.0001 9.76289 68.766 0 57.3749 0ZM57.3749 38.5577C48.6233 38.5577 41.5294 31.0572 41.5294 21.8056C41.5294 12.554 48.6233 5.05379 57.3749 5.05379C66.1261 5.05379 73.2198 12.554 73.2198 21.8056C73.2198 31.0572 66.1261 38.5577 57.3749 38.5577Z" fill="#FFB20F"/>
<path d="M73.8092 54.1785C69.4233 56.7377 63.3909 59.104 57.3751 60.1016C52.0228 60.989 41.9534 58.8488 41.9534 56.3212C41.9534 55.3634 50.7846 58.6813 56.1266 57.1744C60.223 56.0191 59.6415 51.9679 57.4133 51.4335C55.1982 50.902 42.2203 45.8755 36.6769 45.7022C34.0656 45.6206 27.6187 46.6623 24.4991 47.1994C23.4304 47.3833 22.7603 47.3631 22.6935 48.4443C22.3831 53.4694 21.7712 63.7453 21.4377 69.113C21.4307 69.2264 21.5797 70.7516 22.7702 69.6782C24.0732 68.5036 25.9008 67.2015 27.5912 67.6069C30.2432 68.243 53.1864 72.6868 56.3511 71.9091C60.8783 70.7964 73.6942 62.7668 76.1514 60.2711C79.96 56.4019 76.9993 52.317 73.8092 54.1785Z" fill="#FFB20F"/>
<path d="M16.3622 47.0038L4.34288 46.3776C3.41492 46.3293 2.46717 47.0686 2.23655 48.0199L0.0510735 68.9976C-0.179324 69.9492 0.391833 70.759 1.32024 70.7968L14.6406 70.7955C15.5693 70.8333 16.3866 70.0631 16.4579 69.0836L17.9207 48.8722C17.9915 47.893 17.2902 47.0521 16.3622 47.0038ZM9.28632 68.0163C7.45083 68.0163 5.96314 66.4433 5.96314 64.503C5.96314 62.5624 7.45105 60.9896 9.28632 60.9896C11.1216 60.9896 12.6095 62.5627 12.6095 64.503C12.6095 66.4435 11.1218 68.0163 9.28632 68.0163Z" fill="#FFB20F"/>
<ellipse cx="57" cy="21.5" rx="12" ry="15.5" fill="white"/>
<g clip-path="url(#clip0)">
<path d="M63.9862 31H61.0742L54.4806 18.1515V31H51.5686V12.2504H54.4806L61.0742 25.1257V12.2504H63.9862V31Z" fill="#FFB20F"/>
</g>
<rect x="48" y="17" width="5" height="3" fill="#FFB20F"/>
<rect x="48" y="22" width="5" height="3" fill="#FFB20F"/>
<rect x="63" y="17" width="5" height="3" fill="#FFB20F"/>
<rect x="63" y="22" width="5" height="3" fill="#FFB20F"/>
<defs>
<clipPath id="clip0">
<rect width="13" height="19" fill="white" transform="translate(51 12)"/>
</clipPath>
</defs>
</svg>
