<svg width="108" height="127" viewBox="0 0 108 127" fill="none" xmlns="http://www.w3.org/2000/svg">
<path d="M15.2718 41.6171L92.0074 85.8756" stroke="#D2D2D2" stroke-width="5"/>
<path d="M25.0891 58.8198C25.1106 58.3525 25.0094 57.9254 24.7856 57.5386C24.5618 57.1517 24.2265 56.8227 23.7796 56.5516C23.2848 56.2515 22.7782 56.097 22.2596 56.088C21.741 56.0791 21.2482 56.2168 20.781 56.501C20.3138 56.7852 19.9156 57.1987 19.5864 57.7413C19.2476 58.2999 19.06 58.852 19.0237 59.3976C18.9954 59.9481 19.109 60.4537 19.3645 60.9143C19.6199 61.375 20.007 61.7626 20.5257 62.0773C21.1641 62.4646 21.7884 62.6141 22.3987 62.5258C23.0138 62.4296 23.5692 62.1169 24.0648 61.5879L21.192 59.8452L21.969 58.5645L26.4935 61.3093L25.6076 62.7696C25.1425 63.2843 24.5764 63.6777 23.9092 63.9498C23.242 64.2218 22.5251 64.3328 21.7586 64.2826C21.005 64.2293 20.2691 63.9848 19.5509 63.5492C18.7449 63.0602 18.1237 62.4377 17.6872 61.6817C17.2635 60.9225 17.0602 60.106 17.0773 59.2321C17.1023 58.363 17.3642 57.5176 17.8628 56.6956C18.3614 55.8737 18.9903 55.2509 19.7495 54.8273C20.5215 54.4004 21.3396 54.2036 22.2038 54.2366C23.0808 54.2665 23.9183 54.5235 24.7163 55.0076C25.6579 55.5788 26.3355 56.3064 26.7489 57.1904C27.1672 58.0664 27.2563 58.9992 27.0162 59.9889L25.0891 58.8198ZM33.1788 66.986C33.0336 67.2254 32.8869 67.4312 32.7388 67.6033L27.8911 64.6625C27.6405 65.1654 27.5806 65.6421 27.7113 66.0926C27.8419 66.543 28.1227 66.8989 28.5536 67.1603C29.176 67.5379 29.7811 67.5393 30.3687 67.1644L32.1762 68.2609C31.5974 68.7831 30.9108 69.087 30.1164 69.1728C29.3269 69.2506 28.5372 69.0498 27.7472 68.5706C27.1088 68.1833 26.619 67.6951 26.2777 67.106C25.9493 66.5138 25.7987 65.8712 25.8261 65.1782C25.8615 64.4901 26.0849 63.8069 26.4964 63.1286C26.9127 62.4423 27.4179 61.9246 28.0118 61.5753C28.6058 61.2261 29.2388 61.0643 29.911 61.09C30.5831 61.1157 31.2464 61.327 31.9007 61.724C32.5311 62.1064 33.0114 62.5833 33.3415 63.1548C33.6797 63.7311 33.8319 64.3529 33.7982 65.0202C33.7774 65.6844 33.5709 66.3396 33.1788 66.986ZM31.7337 65.4543C31.9871 65.0186 32.0396 64.581 31.8913 64.1417C31.7478 63.6944 31.4567 63.3377 31.0178 63.0714C30.6028 62.8197 30.1743 62.7344 29.7321 62.8155C29.3027 62.8934 28.9206 63.1364 28.5856 63.5446L31.7337 65.4543ZM37.4422 67.1162L35.4961 70.3241C35.3606 70.5475 35.3132 70.7425 35.354 70.9092C35.4077 71.0727 35.5621 71.232 35.8175 71.3869L36.5955 71.8589L35.7387 73.2713L34.6853 72.6323C33.2729 71.7754 32.983 70.6607 33.8157 69.2882L35.7545 66.0923L34.9645 65.6131L35.7996 64.2366L36.5895 64.7158L37.5844 63.076L39.2721 64.0999L38.2773 65.7397L39.7615 66.6401L38.9264 68.0166L37.4422 67.1162ZM50.0235 70.5076L49.2029 71.8602L45.7198 69.7471L44.42 71.8897L47.0892 73.509L46.2832 74.8376L43.614 73.2183L41.4718 76.7493L39.7961 75.7327L44.8646 67.3779L50.0235 70.5076ZM56.4262 76.7498L52.4034 83.381L50.7157 82.3571L51.224 81.5192C50.8342 81.6758 50.413 81.7314 49.9602 81.686C49.5203 81.6374 49.0968 81.4897 48.6899 81.2428C48.1712 80.9281 47.7777 80.542 47.5094 80.0845C47.246 79.6191 47.1268 79.1047 47.152 78.5413C47.19 77.9749 47.3881 77.3964 47.7463 76.8059L50.1062 72.9158L51.782 73.9324L49.5673 77.5831C49.2478 78.1098 49.1325 78.5966 49.2216 79.0436C49.3155 79.4827 49.5899 79.8402 50.0447 80.1161C50.5075 80.3969 50.9553 80.4775 51.3881 80.358C51.8257 80.2304 52.2043 79.9033 52.5238 79.3767L54.7385 75.7259L56.4262 76.7498ZM61.8124 79.8863C62.6024 80.3656 63.0883 81.0042 63.27 81.8023C63.4567 82.5923 63.2789 83.4342 62.7367 84.3279L60.3767 88.218L58.701 87.2014L60.923 83.5387C61.2425 83.0121 61.3553 82.5292 61.2614 82.0902C61.1723 81.6432 60.9004 81.2817 60.4455 81.0057C59.9827 80.725 59.5285 80.6459 59.0829 80.7686C58.6502 80.8881 58.274 81.2112 57.9545 81.7379L55.7325 85.4006L54.0568 84.384L58.0796 77.7528L59.7554 78.7694L59.2543 79.5953C59.652 79.4436 60.0708 79.392 60.5108 79.4406C60.9636 79.486 61.3974 79.6346 61.8124 79.8863ZM63.5653 85.5838C63.972 84.9135 64.4643 84.3989 65.0423 84.04C65.6282 83.6859 66.2374 83.5096 66.8696 83.5111C67.5019 83.5126 68.1013 83.6852 68.6678 84.0289C69.0988 84.2903 69.4516 84.6353 69.7264 85.0641C70.0061 85.4848 70.1673 85.921 70.2099 86.3726L72.1196 83.2246L73.8193 84.2557L68.4459 93.1132L66.7462 92.0821L67.3416 91.1006C66.9357 91.3019 66.4846 91.3885 65.9886 91.3605C65.4925 91.3325 64.9971 91.1684 64.5024 90.8682C63.9438 90.5294 63.5202 90.0759 63.2316 89.5079C62.9431 88.9398 62.8205 88.3142 62.8638 87.6309C62.92 86.9445 63.1538 86.2621 63.5653 85.5838ZM68.7696 88.7738C69.0164 88.3668 69.1472 87.9713 69.1619 87.5872C69.1814 87.1951 69.1015 86.841 68.9222 86.5248C68.7477 86.2006 68.5048 85.9441 68.1936 85.7553C67.8824 85.5665 67.5492 85.468 67.1939 85.4599C66.8385 85.4517 66.4875 85.5445 66.1409 85.7381C65.807 85.9285 65.519 86.2232 65.277 86.6222C65.0349 87.0212 64.9017 87.4207 64.8774 87.8208C64.8658 88.2177 64.9433 88.5758 65.1098 88.8952C65.2843 89.2193 65.5232 89.4734 65.8264 89.6574C66.1376 89.8462 66.4749 89.9471 66.8382 89.96C67.2063 89.965 67.5573 89.8723 67.8912 89.6819C68.2299 89.4834 68.5227 89.1807 68.7696 88.7738ZM72.5547 95.7532C72.0121 95.424 71.5834 95.033 71.2687 94.5801C70.9588 94.1192 70.7779 93.6437 70.7258 93.1536C70.6818 92.6684 70.7712 92.215 70.9942 91.7936L72.6819 92.8174C72.5589 93.0921 72.5543 93.3786 72.6681 93.6769C72.7899 93.98 73.0143 94.2308 73.3415 94.4293C73.6607 94.6229 73.9468 94.7092 74.1998 94.688C74.4608 94.6717 74.6518 94.5638 74.7728 94.3643C74.9035 94.1488 74.8886 93.9214 74.7281 93.6822C74.5805 93.4397 74.306 93.1095 73.9046 92.6913C73.4825 92.2715 73.1506 91.9009 72.9088 91.5796C72.6751 91.2631 72.5224 90.903 72.4507 90.4993C72.387 90.1004 72.4907 89.6776 72.7618 89.2307C72.9845 88.8636 73.2916 88.5914 73.683 88.414C74.0824 88.2415 74.5309 88.1861 75.0284 88.2477C75.5339 88.3142 76.0539 88.5096 76.5886 88.834C77.3786 89.3132 77.8879 89.8952 78.1167 90.5798C78.3503 91.2564 78.2877 91.9444 77.9289 92.6437L76.325 91.6707C76.4608 91.3928 76.475 91.1176 76.3675 90.845C76.2728 90.5692 76.0618 90.3321 75.7347 90.1336C75.4314 89.9496 75.1621 89.8627 74.9268 89.8727C74.6994 89.8876 74.5252 89.9948 74.4042 90.1943C74.2687 90.4177 74.2763 90.6571 74.4271 90.9123C74.5828 91.1596 74.8597 91.4859 75.2579 91.8912C75.6641 92.3013 75.984 92.6647 76.2178 92.9811C76.4515 93.2976 76.5978 93.6593 76.6567 94.0661C76.7283 94.4698 76.635 94.8936 76.3768 95.3373C76.1444 95.7203 75.8285 95.9981 75.4291 96.1706C75.0377 96.348 74.5892 96.4034 74.0837 96.3369C73.5911 96.2673 73.0814 96.0727 72.5547 95.7532Z" fill="#02686F"/>
<path d="M96.5703 88.3584L79.899 87.2379L87.2569 74.4859L96.5703 88.3584Z" fill="#D2D2D2"/>
</svg>
