<svg width="126" height="142" viewBox="0 0 126 142" fill="none" xmlns="http://www.w3.org/2000/svg">
<g filter="url(#filter0_d)">
<ellipse cx="63" cy="58.5" rx="48" ry="48.5" fill="white"/>
</g>
<path d="M34.7136 126.216C34.4256 125.688 34.0296 125.286 33.5256 125.01C33.0216 124.734 32.4336 124.596 31.7616 124.596C31.0176 124.596 30.3576 124.764 29.7816 125.1C29.2056 125.436 28.7556 125.916 28.4316 126.54C28.1076 127.164 27.9456 127.884 27.9456 128.7C27.9456 129.54 28.1076 130.272 28.4316 130.896C28.7676 131.52 29.2296 132 29.8176 132.336C30.4056 132.672 31.0896 132.84 31.8696 132.84C32.8296 132.84 33.6156 132.588 34.2276 132.084C34.8396 131.568 35.2416 130.854 35.4336 129.942H31.1136V128.016H37.9176V130.212C37.7496 131.088 37.3896 131.898 36.8376 132.642C36.2856 133.386 35.5716 133.986 34.6956 134.442C33.8316 134.886 32.8596 135.108 31.7796 135.108C30.5676 135.108 29.4696 134.838 28.4856 134.298C27.5136 133.746 26.7456 132.984 26.1816 132.012C25.6296 131.04 25.3536 129.936 25.3536 128.7C25.3536 127.464 25.6296 126.36 26.1816 125.388C26.7456 124.404 27.5136 123.642 28.4856 123.102C29.4696 122.55 30.5616 122.274 31.7616 122.274C33.1776 122.274 34.4076 122.622 35.4516 123.318C36.4956 124.002 37.2156 124.968 37.6116 126.216H34.7136ZM49.052 129.798C49.052 130.158 49.028 130.482 48.98 130.77H41.69C41.75 131.49 42.002 132.054 42.446 132.462C42.89 132.87 43.436 133.074 44.084 133.074C45.02 133.074 45.686 132.672 46.082 131.868H48.8C48.512 132.828 47.96 133.62 47.144 134.244C46.328 134.856 45.326 135.162 44.138 135.162C43.178 135.162 42.314 134.952 41.546 134.532C40.79 134.1 40.196 133.494 39.764 132.714C39.344 131.934 39.134 131.034 39.134 130.014C39.134 128.982 39.344 128.076 39.764 127.296C40.184 126.516 40.772 125.916 41.528 125.496C42.284 125.076 43.154 124.866 44.138 124.866C45.086 124.866 45.932 125.07 46.676 125.478C47.432 125.886 48.014 126.468 48.422 127.224C48.842 127.968 49.052 128.826 49.052 129.798ZM46.442 129.078C46.43 128.43 46.196 127.914 45.74 127.53C45.284 127.134 44.726 126.936 44.066 126.936C43.442 126.936 42.914 127.128 42.482 127.512C42.062 127.884 41.804 128.406 41.708 129.078H46.442ZM53.8254 127.098V131.922C53.8254 132.258 53.9034 132.504 54.0594 132.66C54.2274 132.804 54.5034 132.876 54.8874 132.876H56.0574V135H54.4734C52.3494 135 51.2874 133.968 51.2874 131.904V127.098H50.0994V125.028H51.2874V122.562H53.8254V125.028H56.0574V127.098H53.8254ZM71.321 126.324C71.321 126.996 71.159 127.626 70.835 128.214C70.523 128.802 70.025 129.276 69.341 129.636C68.669 129.996 67.817 130.176 66.785 130.176H64.679V135H62.159V122.436H66.785C67.757 122.436 68.585 122.604 69.269 122.94C69.953 123.276 70.463 123.738 70.799 124.326C71.147 124.914 71.321 125.58 71.321 126.324ZM66.677 128.142C67.373 128.142 67.889 127.986 68.225 127.674C68.561 127.35 68.729 126.9 68.729 126.324C68.729 125.1 68.045 124.488 66.677 124.488H64.679V128.142H66.677ZM72.4622 129.978C72.4622 128.97 72.6602 128.076 73.0562 127.296C73.4642 126.516 74.0102 125.916 74.6942 125.496C75.3902 125.076 76.1642 124.866 77.0162 124.866C77.7602 124.866 78.4082 125.016 78.9602 125.316C79.5242 125.616 79.9742 125.994 80.3102 126.45V125.028H82.8482V135H80.3102V133.542C79.9862 134.01 79.5362 134.4 78.9602 134.712C78.3962 135.012 77.7422 135.162 76.9982 135.162C76.1582 135.162 75.3902 134.946 74.6942 134.514C74.0102 134.082 73.4642 133.476 73.0562 132.696C72.6602 131.904 72.4622 130.998 72.4622 129.978ZM80.3102 130.014C80.3102 129.402 80.1902 128.88 79.9502 128.448C79.7102 128.004 79.3862 127.668 78.9782 127.44C78.5702 127.2 78.1322 127.08 77.6642 127.08C77.1962 127.08 76.7642 127.194 76.3682 127.422C75.9722 127.65 75.6482 127.986 75.3962 128.43C75.1562 128.862 75.0362 129.378 75.0362 129.978C75.0362 130.578 75.1562 131.106 75.3962 131.562C75.6482 132.006 75.9722 132.348 76.3682 132.588C76.7762 132.828 77.2082 132.948 77.6642 132.948C78.1322 132.948 78.5702 132.834 78.9782 132.606C79.3862 132.366 79.7102 132.03 79.9502 131.598C80.1902 131.154 80.3102 130.626 80.3102 130.014ZM86.5874 123.84C86.1434 123.84 85.7714 123.702 85.4714 123.426C85.1834 123.138 85.0394 122.784 85.0394 122.364C85.0394 121.944 85.1834 121.596 85.4714 121.32C85.7714 121.032 86.1434 120.888 86.5874 120.888C87.0314 120.888 87.3974 121.032 87.6854 121.32C87.9854 121.596 88.1354 121.944 88.1354 122.364C88.1354 122.784 87.9854 123.138 87.6854 123.426C87.3974 123.702 87.0314 123.84 86.5874 123.84ZM87.8294 125.028V135H85.3094V125.028H87.8294ZM89.6711 129.978C89.6711 128.97 89.8691 128.076 90.2651 127.296C90.6731 126.516 91.2251 125.916 91.9211 125.496C92.6171 125.076 93.3911 124.866 94.2431 124.866C94.8911 124.866 95.5091 125.01 96.0971 125.298C96.6851 125.574 97.1531 125.946 97.5011 126.414V121.68H100.057V135H97.5011V133.524C97.1891 134.016 96.7511 134.412 96.1871 134.712C95.6231 135.012 94.9691 135.162 94.2251 135.162C93.3851 135.162 92.6171 134.946 91.9211 134.514C91.2251 134.082 90.6731 133.476 90.2651 132.696C89.8691 131.904 89.6711 130.998 89.6711 129.978ZM97.5191 130.014C97.5191 129.402 97.3991 128.88 97.1591 128.448C96.9191 128.004 96.5951 127.668 96.1871 127.44C95.7791 127.2 95.3411 127.08 94.8731 127.08C94.4051 127.08 93.9731 127.194 93.5771 127.422C93.1811 127.65 92.8571 127.986 92.6051 128.43C92.3651 128.862 92.2451 129.378 92.2451 129.978C92.2451 130.578 92.3651 131.106 92.6051 131.562C92.8571 132.006 93.1811 132.348 93.5771 132.588C93.9851 132.828 94.4171 132.948 94.8731 132.948C95.3411 132.948 95.7791 132.834 96.1871 132.606C96.5951 132.366 96.9191 132.03 97.1591 131.598C97.3991 131.154 97.5191 130.626 97.5191 130.014Z" fill="#2E2828"/>
<path d="M90.0667 32H72.3333C71.8179 32 71.4 32.5037 71.4 33.125V36.5H68.6C68.0846 36.5 67.6667 37.0037 67.6667 37.625V50.4297L60.9131 54.5H35.9333C35.4179 54.5 35 55.0037 35 55.625V84.875C35 85.4963 35.4179 86 35.9333 86H54.6C55.1154 86 55.5333 85.4963 55.5333 84.875V81.7025L65.646 83.7343C65.6969 83.7445 65.7484 83.7497 65.8 83.75H79.8C81.1278 83.7449 82.3527 82.8875 83.0144 81.5H86.3333C86.8488 81.5 87.2667 80.9963 87.2667 80.375V77H90.0667C90.5821 77 91 76.4963 91 75.875V33.125C91 32.5037 90.5821 32 90.0667 32ZM53.6667 83.75H36.8667V56.75H53.6667V83.75ZM73.2667 34.25H89.1333V58.8695C89.1161 58.1599 88.9586 57.445 88.6458 56.7856C88.3174 56.0931 87.8411 55.5191 87.2667 55.1233V37.625C87.2667 37.0037 86.8488 36.5 86.3333 36.5H73.2667V34.25ZM69.5333 38.75H85.4V54.5H83.5333V44.375C83.5333 43.7537 83.1154 43.25 82.6 43.25C82.0846 43.25 81.6667 42.7463 81.6667 42.125C81.6667 41.5037 81.2488 41 80.7333 41H74.2C73.6846 41 73.2667 41.5037 73.2667 42.125C73.2667 42.7463 72.8488 43.25 72.3333 43.25C71.8179 43.25 71.4 43.7537 71.4 44.375V54.5H69.5333V38.75ZM81.6667 45.3076V54.5H73.2667V45.3076C74.0632 44.9656 74.69 44.21 74.9737 43.25H79.9596C80.2433 44.21 80.8702 44.9656 81.6667 45.3076ZM85.4 79.25H83.5333C83.534 78.3584 83.314 77.4868 82.9015 76.7469C84.8471 75.9244 85.8712 73.3564 85.1888 71.0112C85.0847 70.653 84.9433 70.3123 84.7681 69.9969C84.9878 69.9011 85.1995 69.7802 85.4 69.6357V79.25ZM85.4 61.25H81.6667C81.1512 61.25 80.7333 61.7537 80.7333 62.375C80.7333 62.9963 81.1512 63.5 81.6667 63.5H83.5333C84.5643 63.5 85.4 64.5073 85.4 65.75C85.4 66.9927 84.5643 68 83.5333 68H79.8C79.2846 68 78.8667 68.5037 78.8667 69.125C78.8667 69.7463 79.2846 70.25 79.8 70.25H81.6667C82.6977 70.25 83.5333 71.2573 83.5333 72.5C83.5333 73.7427 82.6977 74.75 81.6667 74.75H77.9333C77.4179 74.75 77 75.2537 77 75.875C77 76.4963 77.4179 77 77.9333 77H79.8C80.831 77 81.6667 78.0073 81.6667 79.25C81.6667 80.4927 80.831 81.5 79.8 81.5H65.8775L55.5333 79.4221V56.75H61.1333C61.2781 56.7501 61.4209 56.7098 61.5505 56.6319L67.6667 52.9453V55.625C67.6667 56.2463 68.0846 56.75 68.6 56.75H85.4C86.431 56.75 87.2667 57.7573 87.2667 59C87.2667 60.2427 86.431 61.25 85.4 61.25ZM87.2667 74.75V62.8857C88.4284 62.0852 89.0945 60.6419 89.1333 59.1396V74.75H87.2667Z" fill="#202020"/>
<path d="M54.6726 72.5C52.928 72.5 51.5137 74.5147 51.5137 77C51.5137 79.4853 52.928 81.5 54.6726 81.5C56.4173 81.5 57.8316 79.4853 57.8316 77C57.8316 74.5147 56.4173 72.5 54.6726 72.5ZM54.6726 79.25C53.8003 79.25 53.0932 78.2427 53.0932 77C53.0932 75.7573 53.8003 74.75 54.6726 74.75C55.545 74.75 56.2521 75.7573 56.2521 77C56.2521 78.2427 55.545 79.25 54.6726 79.25Z" fill="#202020"/>
<defs>
<filter id="filter0_d" x="0" y="0" width="126" height="127" filterUnits="userSpaceOnUse" color-interpolation-filters="sRGB">
<feFlood flood-opacity="0" result="BackgroundImageFix"/>
<feColorMatrix in="SourceAlpha" type="matrix" values="0 0 0 0 0 0 0 0 0 0 0 0 0 0 0 0 0 0 127 0"/>
<feOffset dy="5"/>
<feGaussianBlur stdDeviation="7.5"/>
<feColorMatrix type="matrix" values="0 0 0 0 0 0 0 0 0 0 0 0 0 0 0 0 0 0 0.25 0"/>
<feBlend mode="normal" in2="BackgroundImageFix" result="effect1_dropShadow"/>
<feBlend mode="normal" in="SourceGraphic" in2="effect1_dropShadow" result="shape"/>
</filter>
</defs>
</svg>
