<svg width="24" height="17" viewBox="0 0 24 17" fill="none" xmlns="http://www.w3.org/2000/svg">
<path d="M6.63046 13.6273L6.62937 13.6263C4.76914 11.9586 3.28679 10.6277 2.26042 9.38714C1.24243 8.1567 0.754298 7.10898 0.754298 6.02083C0.754298 4.26386 2.14231 2.8793 3.94061 2.8793C4.96209 2.8793 5.95185 3.35307 6.59324 4.09769L7.16475 4.7612L7.73627 4.09769C8.37765 3.35307 9.36741 2.8793 10.3889 2.8793C12.1872 2.8793 13.5752 4.26386 13.5752 6.02083C13.5752 7.10899 13.0871 8.15675 12.0689 9.38822C11.0425 10.6297 9.56034 11.9621 7.70028 13.6332C7.70003 13.6334 7.69978 13.6337 7.69953 13.6339L7.16667 14.1098L6.63046 13.6273Z" stroke="#02686F" stroke-width="1.5086"/>
</svg>
