<svg width="15" height="15" viewBox="0 0 15 15" fill="none" xmlns="http://www.w3.org/2000/svg">
<path d="M10.8627 12.5039L10.9784 12.0649L11.3438 11.7664C11.6497 11.5166 12.0497 11.3567 12.5 11.3567C13.4988 11.3567 14.179 12.0755 14.179 12.8012C14.179 13.5269 13.4988 14.2457 12.5 14.2457C11.5012 14.2457 10.821 13.5269 10.821 12.8012C10.821 12.7103 10.8349 12.6097 10.8627 12.5039ZM4.19163 7.88079L4.09466 8.28386L3.71597 8.6007C3.39816 8.8666 2.97681 9.03486 2.5 9.03486C1.45951 9.03486 0.754298 8.29343 0.754298 7.53012C0.754298 6.76681 1.45951 6.02538 2.5 6.02538C2.97681 6.02538 3.39816 6.19364 3.71597 6.45954L4.09466 6.77638L4.19163 7.17945C4.22904 7.33495 4.2457 7.43935 4.2457 7.53012C4.2457 7.6209 4.22904 7.72529 4.19163 7.88079ZM11.284 3.32962L10.9053 3.01278L10.8084 2.60971C10.771 2.45421 10.7543 2.34981 10.7543 2.25904C10.7543 1.49573 11.4595 0.754298 12.5 0.754298C13.5405 0.754298 14.2457 1.49573 14.2457 2.25904C14.2457 3.02234 13.5405 3.76377 12.5 3.76377C12.0232 3.76377 11.6018 3.59552 11.284 3.32962Z" stroke="#02686F" stroke-width="1.5086"/>
</svg>
