<svg width="20" height="17" viewBox="0 0 20 17" fill="none" xmlns="http://www.w3.org/2000/svg">
<path d="M1.9196 5.29246C2.1726 5.47903 2.93523 6.03315 4.20752 6.95454C5.47985 7.87593 6.45455 8.58537 7.13164 9.08291C7.20603 9.13745 7.36408 9.25601 7.60586 9.43874C7.84767 9.62159 8.0486 9.76936 8.20848 9.88207C8.36848 9.99474 8.5619 10.1211 8.78895 10.2611C9.01591 10.4009 9.22985 10.506 9.43074 10.5756C9.63167 10.6458 9.81766 10.6806 9.98877 10.6806H9.99998H10.0112C10.1823 10.6806 10.3684 10.6458 10.5693 10.5756C10.7702 10.506 10.9843 10.4007 11.2111 10.2611C11.4379 10.121 11.6314 9.9947 11.7914 9.88207C11.9514 9.76936 12.1521 9.62159 12.394 9.43874C12.6358 9.25584 12.794 9.13745 12.8684 9.08291C13.5528 8.58537 15.294 7.32176 18.0915 5.29221C18.6347 4.89582 19.0884 4.41752 19.453 3.85764C19.8178 3.298 20 2.71091 20 2.09669C20 1.58342 19.8232 1.14405 19.4697 0.778627C19.1163 0.41312 18.6977 0.230469 18.2142 0.230469H1.78564C1.21276 0.230469 0.771891 0.432607 0.463111 0.836883C0.15437 1.24124 0 1.74667 0 2.35312C0 2.84298 0.20468 3.37382 0.613846 3.94531C1.02297 4.51683 1.45837 4.96592 1.9196 5.29246Z" fill="white"/>
<path d="M18.8838 6.54008C16.4435 8.26614 14.5906 9.60756 13.3259 10.5641C12.9018 10.8905 12.5578 11.1454 12.2936 11.328C12.0293 11.5107 11.678 11.6973 11.2389 11.8877C10.8 12.0784 10.3909 12.1735 10.0114 12.1735H10H9.9888C9.60934 12.1735 9.20006 12.0784 8.76115 11.8877C8.32223 11.6973 7.97061 11.5107 7.70647 11.328C7.44241 11.1454 7.09826 10.8905 6.6742 10.5641C5.66968 9.79434 3.82075 8.45283 1.12734 6.54008C0.703129 6.2448 0.327387 5.90634 0 5.52539V14.786C0 15.2995 0.174776 15.7386 0.524523 16.1041C0.874192 16.4697 1.29465 16.6524 1.78575 16.6524H18.2144C18.7053 16.6524 19.1258 16.4697 19.4755 16.1041C19.8253 15.7385 20 15.2996 20 14.786V5.52539C19.68 5.89845 19.3081 6.23692 18.8838 6.54008Z" fill="white"/>
</svg>
