<svg width="20" height="16" viewBox="0 0 20 16" fill="none" xmlns="http://www.w3.org/2000/svg">
<g clip-path="url(#clip0)">
<path d="M15.2379 9.72359C14.8082 9.71082 14.4201 9.73774 14.024 9.80699C13.8241 8.19643 13.0737 5.01035 10.2695 3.68568C10.2695 3.68568 12.4502 2.32457 12.2503 0.57224C12.2362 0.449766 12.1177 0.355469 11.9734 0.355469H13.1496C13.2939 0.355469 13.4125 0.445884 13.4265 0.562597C13.6264 2.23791 11.4458 3.53954 11.4458 3.53954C14.4686 4.90453 15.1047 8.33869 15.2379 9.72359V9.72359Z" fill="#CCCCCC"/>
<path d="M15.7105 9.74468C15.5319 9.73141 15.3526 9.72439 15.1731 9.72439C14.5315 9.72439 13.8878 9.80905 13.2689 9.97986C13.0231 10.0474 12.7838 10.1273 12.5523 10.2204L8.80927 11.7177L2.54625 8.93896C2.35725 8.85055 2.15218 8.80859 1.94909 8.80859C1.53342 8.80859 1.12894 8.98554 0.906861 9.30149C0.576503 9.77098 0.77484 10.3717 1.3501 10.6411L7.54221 15.2794C7.54588 15.2817 7.54971 15.2848 7.55354 15.2872C8.1582 15.6644 8.96503 15.7467 9.67705 15.527L14.6814 13.9817C15.2368 13.8288 15.8186 13.7955 16.3749 13.8715C16.6996 13.9157 17.0157 13.9972 17.3147 14.1144V10.0511C16.7973 9.88819 16.2573 9.78576 15.7105 9.74468V9.74468Z" fill="white"/>
<path d="M19.6873 9.40608V14.4989C19.6873 14.6931 19.4952 14.8503 19.2575 14.8503H17.7442C17.5067 14.8503 17.3145 14.6931 17.3145 14.4989V9.40608C17.3145 9.21235 17.5067 9.05469 17.7442 9.05469H19.2575C19.4952 9.05469 19.6873 9.21235 19.6873 9.40608Z" fill="#8D8D8D"/>
<path d="M19.6868 9.40608V14.4989C19.6868 14.6931 19.4948 14.8503 19.2571 14.8503H18.92C18.6824 14.8503 18.4902 14.6931 18.4902 14.4989V9.40608C18.4902 9.21235 18.6824 9.05469 18.92 9.05469H19.2571C19.4948 9.05469 19.6868 9.21235 19.6868 9.40608Z" fill="#828282"/>
<path d="M15.7102 9.74294C15.5317 9.72967 15.3523 9.72266 15.1728 9.72266C14.5312 9.72266 13.8875 9.80731 13.2686 9.97812C13.0228 10.0456 12.7836 10.1255 12.552 10.2187L8.80901 11.7159L8.21583 11.9534C7.82758 12.1133 7.60352 12.4346 7.60352 12.7667C7.60352 12.905 7.6415 13.0455 7.72313 13.1766C8.00034 13.626 8.66948 13.8069 9.21916 13.5802L13.8143 11.7423C13.8143 11.7423 15.1457 11.2538 16.7791 11.3475L17.3144 11.3826V10.0494C16.797 9.88646 16.257 9.78402 15.7102 9.74294V9.74294Z" fill="white"/>
<path d="M9.875 11.2867C10.4616 11.0373 10.9548 10.8321 11.3931 10.668C10.9494 10.8468 10.4498 11.052 9.875 11.2867V11.2867Z" fill="#965959"/>
<path d="M19.2564 8.76607H17.7431C17.3329 8.76607 16.9996 9.04027 16.9996 9.37773V9.66227C16.5189 9.54167 16.025 9.46997 15.5286 9.44679C15.2654 7.20553 14.2741 4.68225 11.9858 3.42981C12.6302 2.95626 13.9037 1.83172 13.7391 0.441926C13.7092 0.189649 13.4561 0 13.1502 0H6.51224C6.20639 0 5.95307 0.189649 5.92336 0.441926C5.75871 1.83172 7.03221 2.95626 7.67669 3.42981C5.43157 4.65869 4.43299 7.11102 4.14873 9.32682L2.70202 8.68101C1.53603 8.13109 0.135111 9.01948 0.486759 10.0868C0.589527 10.3984 0.828604 10.6598 1.16264 10.8262C1.5901 11.1488 7.33408 15.4799 7.36226 15.4973C8.02757 15.9143 8.9505 16.0347 9.78688 15.7748L14.7859 14.2218C15.5113 14.0218 16.2907 14.0431 16.9996 14.2805V14.5012C16.9996 14.8386 17.3329 15.1128 17.7431 15.1128H19.2564C19.6658 15.1128 19.9998 14.8386 19.9998 14.5012V9.37773C19.9998 9.04027 19.6656 8.76607 19.2564 8.76607V8.76607ZM6.54425 0.516148H13.1171C13.2551 1.85012 11.7056 2.96029 11.3382 3.20374H8.32409C7.95666 2.96155 6.40641 1.85075 6.54425 0.516148V0.516148ZM8.29973 3.71989H11.3618C13.6771 4.87656 14.6165 7.23073 14.8948 9.44288C13.2559 9.50097 12.6535 9.8654 8.81679 11.4101L4.74865 9.5946C4.99691 7.33734 5.92213 4.92369 8.29973 3.71989V3.71989ZM16.9995 13.7302C16.2138 13.5154 15.3708 13.5147 14.5796 13.7347C14.571 13.7364 9.57323 15.2896 9.56496 15.2921C8.95325 15.4825 8.26083 15.4064 7.75342 15.0934C7.71896 15.0676 1.54706 10.412 1.50602 10.3939C1.30063 10.2971 1.15406 10.1404 1.09203 9.95197C0.886957 9.32833 1.70298 8.80475 2.39616 9.13201C6.58959 11.003 1.90147 8.91237 8.12514 11.6888C6.71227 12.261 7.23024 13.9327 8.7203 13.9327C9.15956 13.9327 8.8877 13.9968 14.041 11.9231C14.4119 11.7735 14.1385 11.3099 13.7648 11.4597C13.257 11.664 10.5536 12.7521 9.07716 13.3462C8.44447 13.6086 7.73933 13.1088 7.95498 12.5573C8.19697 12.1602 7.65862 12.4508 12.6898 10.4262C13.999 9.89653 15.5603 9.79874 16.9995 10.2055V13.7302ZM19.3725 14.5012C19.3725 14.5541 19.3198 14.5967 19.2564 14.5967H17.7429C17.6786 14.5967 17.6268 14.5541 17.6268 14.5012V9.37773C17.6268 9.32481 17.6786 9.28221 17.7429 9.28221H19.2564C19.3198 9.28221 19.3725 9.32481 19.3725 9.37773V14.5012Z" fill="#02686F"/>
</g>
<defs>
<clipPath id="clip0">
<rect width="19.5682" height="16" fill="white" transform="translate(0.431641)"/>
</clipPath>
</defs>
</svg>
