<svg width="84" height="67" viewBox="0 0 84 67" fill="none" xmlns="http://www.w3.org/2000/svg">
<path d="M5.70655 27.5692L11.2977 35.5836L9.69021 36.7051L4.09907 28.6906L5.70655 27.5692ZM11.9091 25.5636C12.6669 25.035 13.4475 24.8489 14.2509 25.0054C15.0489 25.1542 15.747 25.6573 16.3451 26.5146L18.9484 30.2463L17.3409 31.3677L14.8898 27.8542C14.5373 27.349 14.1413 27.0505 13.7018 26.9589C13.257 26.8595 12.8164 26.962 12.3801 27.2664C11.9361 27.5762 11.6801 27.9596 11.6121 28.4167C11.5464 28.8609 11.6898 29.3355 12.0422 29.8407L14.4934 33.3542L12.8859 34.4757L8.44821 28.1146L10.0557 26.9932L10.6084 27.7855C10.6305 27.3604 10.7527 26.9565 10.975 26.5737C11.1997 26.178 11.5111 25.8413 11.9091 25.5636ZM22.096 25.8483L20.2992 19.847L22.01 18.6535L24.0938 26.6566L22.1419 28.0183L15.3619 23.2914L17.0842 22.0899L22.096 25.8483ZM30.9488 16.9411C31.109 17.1707 31.2379 17.3881 31.3354 17.5931L26.6852 20.8373C27.0439 21.2699 27.4556 21.5175 27.9204 21.5802C28.3852 21.6428 28.8243 21.53 29.2376 21.2416C29.8347 20.8251 30.0806 20.2723 29.9754 19.5832L31.7092 18.3737C31.9527 19.1142 31.953 19.865 31.7102 20.6262C31.462 21.3797 30.9591 22.0208 30.2012 22.5495C29.5889 22.9767 28.9443 23.2273 28.2675 23.3011C27.593 23.362 26.9444 23.2397 26.3217 22.9344C25.7067 22.6238 25.1722 22.1431 24.7183 21.4925C24.2591 20.8342 23.9898 20.1628 23.9106 19.4784C23.8314 18.7939 23.9395 18.1495 24.2349 17.5452C24.5302 16.9408 24.9917 16.4197 25.6194 15.9818C26.2241 15.5599 26.8545 15.3136 27.5107 15.2428C28.1745 15.1666 28.8048 15.2788 29.4014 15.5795C30.0004 15.8672 30.5162 16.3211 30.9488 16.9411ZM28.9635 17.6433C28.6675 17.2353 28.2886 17.0103 27.8268 16.9682C27.3597 16.9186 26.9156 17.0406 26.4946 17.3343C26.0966 17.612 25.8452 17.9694 25.7405 18.4066C25.6382 18.8308 25.7059 19.2786 25.9437 19.75L28.9635 17.6433ZM36.9433 17.846C36.4228 18.2091 35.8918 18.443 35.3503 18.5477C34.8034 18.6447 34.2954 18.6179 33.8261 18.4673C33.3646 18.3113 32.9861 18.0462 32.6908 17.6718L34.3098 16.5423C34.5113 16.7659 34.7714 16.886 35.0902 16.9026C35.4167 16.9138 35.7369 16.8099 36.0507 16.591C36.3569 16.3774 36.5515 16.1506 36.6344 15.9106C36.7251 15.6653 36.7036 15.447 36.5701 15.2556C36.4259 15.049 36.2119 14.9706 35.9282 15.0207C35.6468 15.0577 35.2337 15.1752 34.689 15.3731C34.1343 15.5894 33.6611 15.7431 33.2695 15.8342C32.8855 15.92 32.4944 15.914 32.0962 15.8163C31.7056 15.7132 31.3608 15.4473 31.0618 15.0187C30.8161 14.6665 30.6914 14.2756 30.6875 13.8459C30.6912 13.4108 30.8219 12.9783 31.0795 12.5482C31.3447 12.1128 31.7338 11.7162 32.2467 11.3584C33.0045 10.8297 33.7427 10.5992 34.4613 10.6669C35.1746 10.7269 35.7785 11.0624 36.273 11.6733L34.7344 12.7467C34.5352 12.5101 34.2892 12.3859 33.9964 12.3739C33.7059 12.349 33.4037 12.446 33.0899 12.6649C32.799 12.8679 32.6106 13.079 32.5246 13.2983C32.4462 13.5123 32.4738 13.7149 32.6073 13.9063C32.7568 14.1206 32.9788 14.2104 33.2733 14.1757C33.5624 14.1334 33.9728 14.0121 34.5045 13.8118C35.0439 13.6062 35.5056 13.4605 35.8895 13.3748C36.2735 13.289 36.6634 13.3014 37.0593 13.4122C37.4575 13.5099 37.8073 13.7666 38.1087 14.1823C38.365 14.5497 38.4913 14.9509 38.4876 15.386C38.4915 15.8157 38.3608 16.2483 38.0955 16.6837C37.8326 17.1061 37.4485 17.4936 36.9433 17.846ZM39.0489 8.72962L41.1957 11.8068C41.3452 12.0211 41.5044 12.1433 41.6733 12.1734C41.8446 12.1905 42.0527 12.1136 42.2976 11.9427L43.044 11.4221L43.9892 12.7769L42.9788 13.4818C41.6239 14.4271 40.4872 14.2414 39.5687 12.9248L37.43 9.85906L36.6721 10.3877L35.751 9.06731L36.5088 8.53863L35.4114 6.9656L37.0303 5.83616L38.1277 7.40919L39.5515 6.41592L40.4727 7.73635L39.0489 8.72962Z" fill="black"/>
<path d="M4 64L73 16" stroke="#D2D2D2" stroke-width="5"/>
<path d="M78.283 12.9891L70.1389 27.5788L61.7598 15.4734L78.283 12.9891Z" fill="#D2D2D2"/>
</svg>
