<svg width="126" height="139" viewBox="0 0 126 139" fill="none" xmlns="http://www.w3.org/2000/svg">
<g filter="url(#filter0_d)">
<ellipse cx="63" cy="58.5" rx="48" ry="48.5" fill="white"/>
</g>
<path d="M38.971 119.436V132H36.451V119.436H38.971ZM46.9868 121.884C48.1748 121.884 49.1348 122.262 49.8668 123.018C50.5988 123.762 50.9648 124.806 50.9648 126.15V132H48.4448V126.492C48.4448 125.7 48.2468 125.094 47.8508 124.674C47.4548 124.242 46.9148 124.026 46.2308 124.026C45.5348 124.026 44.9828 124.242 44.5748 124.674C44.1788 125.094 43.9808 125.7 43.9808 126.492V132H41.4608V122.028H43.9808V123.27C44.3168 122.838 44.7428 122.502 45.2588 122.262C45.7868 122.01 46.3628 121.884 46.9868 121.884ZM57.5191 129.678L60.0391 122.028H62.7211L59.0311 132H55.9711L52.2991 122.028H54.9991L57.5191 129.678ZM73.4065 126.798C73.4065 127.158 73.3825 127.482 73.3345 127.77H66.0445C66.1045 128.49 66.3565 129.054 66.8005 129.462C67.2445 129.87 67.7905 130.074 68.4385 130.074C69.3745 130.074 70.0405 129.672 70.4365 128.868H73.1545C72.8665 129.828 72.3145 130.62 71.4985 131.244C70.6825 131.856 69.6805 132.162 68.4925 132.162C67.5325 132.162 66.6685 131.952 65.9005 131.532C65.1445 131.1 64.5505 130.494 64.1185 129.714C63.6985 128.934 63.4885 128.034 63.4885 127.014C63.4885 125.982 63.6985 125.076 64.1185 124.296C64.5385 123.516 65.1265 122.916 65.8825 122.496C66.6385 122.076 67.5085 121.866 68.4925 121.866C69.4405 121.866 70.2865 122.07 71.0305 122.478C71.7865 122.886 72.3685 123.468 72.7765 124.224C73.1965 124.968 73.4065 125.826 73.4065 126.798ZM70.7965 126.078C70.7845 125.43 70.5505 124.914 70.0945 124.53C69.6385 124.134 69.0805 123.936 68.4205 123.936C67.7965 123.936 67.2685 124.128 66.8365 124.512C66.4165 124.884 66.1585 125.406 66.0625 126.078H70.7965ZM79.0619 132.162C78.2459 132.162 77.5139 132.018 76.8659 131.73C76.2179 131.43 75.7019 131.028 75.3179 130.524C74.9459 130.02 74.7419 129.462 74.7059 128.85H77.2439C77.2919 129.234 77.4779 129.552 77.8019 129.804C78.1379 130.056 78.5519 130.182 79.0439 130.182C79.5239 130.182 79.8959 130.086 80.1599 129.894C80.4359 129.702 80.5739 129.456 80.5739 129.156C80.5739 128.832 80.4059 128.592 80.0699 128.436C79.7459 128.268 79.2239 128.088 78.5039 127.896C77.7599 127.716 77.1479 127.53 76.6679 127.338C76.1999 127.146 75.7919 126.852 75.4439 126.456C75.1079 126.06 74.9399 125.526 74.9399 124.854C74.9399 124.302 75.0959 123.798 75.4079 123.342C75.7319 122.886 76.1879 122.526 76.7759 122.262C77.3759 121.998 78.0779 121.866 78.8819 121.866C80.0699 121.866 81.0179 122.166 81.7259 122.766C82.4339 123.354 82.8239 124.152 82.8959 125.16H80.4839C80.4479 124.764 80.2799 124.452 79.9799 124.224C79.6919 123.984 79.3019 123.864 78.8099 123.864C78.3539 123.864 77.9999 123.948 77.7479 124.116C77.5079 124.284 77.3879 124.518 77.3879 124.818C77.3879 125.154 77.5559 125.412 77.8919 125.592C78.2279 125.76 78.7499 125.934 79.4579 126.114C80.1779 126.294 80.7719 126.48 81.2399 126.672C81.7079 126.864 82.1099 127.164 82.4459 127.572C82.7939 127.968 82.9739 128.496 82.9859 129.156C82.9859 129.732 82.8239 130.248 82.4999 130.704C82.1879 131.16 81.7319 131.52 81.1319 131.784C80.5439 132.036 79.8539 132.162 79.0619 132.162ZM87.9885 124.098V128.922C87.9885 129.258 88.0665 129.504 88.2225 129.66C88.3905 129.804 88.6665 129.876 89.0505 129.876H90.2205V132H88.6365C86.5125 132 85.4505 130.968 85.4505 128.904V124.098H84.2625V122.028H85.4505V119.562H87.9885V122.028H90.2205V124.098H87.9885Z" fill="#2E2828"/>
<path d="M44.68 42L43.847 37H40.857C40.411 35.28 38.859 34 37 34C34.794 34 33 35.794 33 38C33 40.206 34.794 42 37 42C38.859 42 40.411 40.72 40.858 39H42.152L42.652 42H42.614L47.785 68.016C45.32 68.204 43.267 70.102 43.025 72.49C42.883 73.895 43.345 75.302 44.293 76.348C45.242 77.397 46.594 78 48 78H50C50 81.309 52.691 84 56 84C59.309 84 62 81.309 62 78H73C73 81.309 75.691 84 79 84C82.309 84 85 81.309 85 78H89C89.553 78 90 77.553 90 77C90 76.447 89.553 76 89 76H84.65C83.824 73.673 81.607 72 79 72C76.393 72 74.176 73.673 73.35 76H61.65C60.824 73.673 58.607 72 56 72C53.393 72 51.176 73.673 50.35 76H48C47.158 76 46.348 75.638 45.776 75.007C45.199 74.368 44.928 73.546 45.015 72.691C45.167 71.182 46.561 70.001 48.188 70.001H48.979C48.993 70.001 49.004 70.001 49.018 70.001H88.012C90.763 70 93 67.763 93 65.013V42H44.68ZM37 40C35.897 40 35 39.103 35 38C35 36.897 35.897 36 37 36C38.103 36 39 36.897 39 38C39 39.103 38.103 40 37 40ZM79 74C81.206 74 83 75.794 83 78C83 80.206 81.206 82 79 82C76.794 82 75 80.206 75 78C75 75.794 76.794 74 79 74ZM56 74C58.206 74 60 75.794 60 78C60 80.206 58.206 82 56 82C53.794 82 52 80.206 52 78C52 75.794 53.794 74 56 74ZM91 65.013C91 66.66 89.66 68 88.013 68H49.821L45.051 44H91V65.013Z" fill="#02686F"/>
<defs>
<filter id="filter0_d" x="0" y="0" width="126" height="127" filterUnits="userSpaceOnUse" color-interpolation-filters="sRGB">
<feFlood flood-opacity="0" result="BackgroundImageFix"/>
<feColorMatrix in="SourceAlpha" type="matrix" values="0 0 0 0 0 0 0 0 0 0 0 0 0 0 0 0 0 0 127 0"/>
<feOffset dy="5"/>
<feGaussianBlur stdDeviation="7.5"/>
<feColorMatrix type="matrix" values="0 0 0 0 0 0 0 0 0 0 0 0 0 0 0 0 0 0 0.25 0"/>
<feBlend mode="normal" in2="BackgroundImageFix" result="effect1_dropShadow"/>
<feBlend mode="normal" in="SourceGraphic" in2="effect1_dropShadow" result="shape"/>
</filter>
</defs>
</svg>
