<svg width="85" height="74" viewBox="0 0 85 74" fill="none" xmlns="http://www.w3.org/2000/svg">
<g opacity="0.2">
<path opacity="0.2" d="M7.54027 5.43061C8.22172 5.43061 8.77414 4.94968 8.77414 4.35642C8.77414 3.76316 8.22172 3.28223 7.54027 3.28223C6.85882 3.28223 6.3064 3.76316 6.3064 4.35642C6.3064 4.94968 6.85882 5.43061 7.54027 5.43061Z" fill="#102D35"/>
<path opacity="0.2" d="M15.3547 5.43061C16.0362 5.43061 16.5886 4.94968 16.5886 4.35642C16.5886 3.76316 16.0362 3.28223 15.3547 3.28223C14.6733 3.28223 14.1208 3.76316 14.1208 4.35642C14.1208 4.94968 14.6733 5.43061 15.3547 5.43061Z" fill="#102D35"/>
<path opacity="0.2" d="M23.0322 5.43061C23.7137 5.43061 24.2661 4.94968 24.2661 4.35642C24.2661 3.76316 23.7137 3.28223 23.0322 3.28223C22.3508 3.28223 21.7983 3.76316 21.7983 4.35642C21.7983 4.94968 22.3508 5.43061 23.0322 5.43061Z" fill="#102D35"/>
<path opacity="0.2" d="M30.8467 5.43061C31.5281 5.43061 32.0805 4.94968 32.0805 4.35642C32.0805 3.76316 31.5281 3.28223 30.8467 3.28223C30.1652 3.28223 29.6128 3.76316 29.6128 4.35642C29.6128 4.94968 30.1652 5.43061 30.8467 5.43061Z" fill="#102D35"/>
<path opacity="0.2" d="M38.6611 5.43061C39.3426 5.43061 39.895 4.94968 39.895 4.35642C39.895 3.76316 39.3426 3.28223 38.6611 3.28223C37.9797 3.28223 37.4272 3.76316 37.4272 4.35642C37.4272 4.94968 37.9797 5.43061 38.6611 5.43061Z" fill="#102D35"/>
<path opacity="0.2" d="M46.3388 5.43061C47.0203 5.43061 47.5727 4.94968 47.5727 4.35642C47.5727 3.76316 47.0203 3.28223 46.3388 3.28223C45.6574 3.28223 45.105 3.76316 45.105 4.35642C45.105 4.94968 45.6574 5.43061 46.3388 5.43061Z" fill="#102D35"/>
<path opacity="0.2" d="M54.1531 5.43061C54.8345 5.43061 55.3869 4.94968 55.3869 4.35642C55.3869 3.76316 54.8345 3.28223 54.1531 3.28223C53.4716 3.28223 52.9192 3.76316 52.9192 4.35642C52.9192 4.94968 53.4716 5.43061 54.1531 5.43061Z" fill="#102D35"/>
<path opacity="0.2" d="M61.9675 5.43061C62.649 5.43061 63.2014 4.94968 63.2014 4.35642C63.2014 3.76316 62.649 3.28223 61.9675 3.28223C61.2861 3.28223 60.7336 3.76316 60.7336 4.35642C60.7336 4.94968 61.2861 5.43061 61.9675 5.43061Z" fill="#102D35"/>
<path opacity="0.2" d="M69.645 5.43061C70.3264 5.43061 70.8789 4.94968 70.8789 4.35642C70.8789 3.76316 70.3264 3.28223 69.645 3.28223C68.9636 3.28223 68.4111 3.76316 68.4111 4.35642C68.4111 4.94968 68.9636 5.43061 69.645 5.43061Z" fill="#102D35"/>
<path opacity="0.2" d="M77.4597 5.43061C78.1412 5.43061 78.6936 4.94968 78.6936 4.35642C78.6936 3.76316 78.1412 3.28223 77.4597 3.28223C76.7783 3.28223 76.2258 3.76316 76.2258 4.35642C76.2258 4.94968 76.7783 5.43061 77.4597 5.43061Z" fill="#102D35"/>
<path opacity="0.2" d="M7.54027 11.7564C8.22172 11.7564 8.77414 11.2755 8.77414 10.6822C8.77414 10.089 8.22172 9.60803 7.54027 9.60803C6.85882 9.60803 6.3064 10.089 6.3064 10.6822C6.3064 11.2755 6.85882 11.7564 7.54027 11.7564Z" fill="#102D35"/>
<path opacity="0.2" d="M15.3547 11.7564C16.0362 11.7564 16.5886 11.2755 16.5886 10.6822C16.5886 10.089 16.0362 9.60803 15.3547 9.60803C14.6733 9.60803 14.1208 10.089 14.1208 10.6822C14.1208 11.2755 14.6733 11.7564 15.3547 11.7564Z" fill="#102D35"/>
<path opacity="0.2" d="M23.0322 11.7564C23.7137 11.7564 24.2661 11.2755 24.2661 10.6822C24.2661 10.089 23.7137 9.60803 23.0322 9.60803C22.3508 9.60803 21.7983 10.089 21.7983 10.6822C21.7983 11.2755 22.3508 11.7564 23.0322 11.7564Z" fill="#102D35"/>
<path opacity="0.2" d="M30.8467 11.7564C31.5281 11.7564 32.0805 11.2755 32.0805 10.6822C32.0805 10.089 31.5281 9.60803 30.8467 9.60803C30.1652 9.60803 29.6128 10.089 29.6128 10.6822C29.6128 11.2755 30.1652 11.7564 30.8467 11.7564Z" fill="#102D35"/>
<path opacity="0.2" d="M38.6611 11.7564C39.3426 11.7564 39.895 11.2755 39.895 10.6822C39.895 10.089 39.3426 9.60803 38.6611 9.60803C37.9797 9.60803 37.4272 10.089 37.4272 10.6822C37.4272 11.2755 37.9797 11.7564 38.6611 11.7564Z" fill="#102D35"/>
<path opacity="0.2" d="M46.3388 11.7564C47.0203 11.7564 47.5727 11.2755 47.5727 10.6822C47.5727 10.089 47.0203 9.60803 46.3388 9.60803C45.6574 9.60803 45.105 10.089 45.105 10.6822C45.105 11.2755 45.6574 11.7564 46.3388 11.7564Z" fill="#102D35"/>
<path opacity="0.2" d="M54.1531 11.7564C54.8345 11.7564 55.3869 11.2755 55.3869 10.6822C55.3869 10.089 54.8345 9.60803 54.1531 9.60803C53.4716 9.60803 52.9192 10.089 52.9192 10.6822C52.9192 11.2755 53.4716 11.7564 54.1531 11.7564Z" fill="#102D35"/>
<path opacity="0.2" d="M61.9675 11.7564C62.649 11.7564 63.2014 11.2755 63.2014 10.6822C63.2014 10.089 62.649 9.60803 61.9675 9.60803C61.2861 9.60803 60.7336 10.089 60.7336 10.6822C60.7336 11.2755 61.2861 11.7564 61.9675 11.7564Z" fill="#102D35"/>
<path opacity="0.2" d="M69.645 11.7564C70.3264 11.7564 70.8789 11.2755 70.8789 10.6822C70.8789 10.089 70.3264 9.60803 69.645 9.60803C68.9636 9.60803 68.4111 10.089 68.4111 10.6822C68.4111 11.2755 68.9636 11.7564 69.645 11.7564Z" fill="#102D35"/>
<path opacity="0.2" d="M77.4597 11.7564C78.1412 11.7564 78.6936 11.2755 78.6936 10.6822C78.6936 10.089 78.1412 9.60803 77.4597 9.60803C76.7783 9.60803 76.2258 10.089 76.2258 10.6822C76.2258 11.2755 76.7783 11.7564 77.4597 11.7564Z" fill="#102D35"/>
<path opacity="0.2" d="M7.54027 17.9628C8.22172 17.9628 8.77414 17.4819 8.77414 16.8886C8.77414 16.2954 8.22172 15.8145 7.54027 15.8145C6.85882 15.8145 6.3064 16.2954 6.3064 16.8886C6.3064 17.4819 6.85882 17.9628 7.54027 17.9628Z" fill="#102D35"/>
<path opacity="0.2" d="M15.3547 17.9628C16.0362 17.9628 16.5886 17.4819 16.5886 16.8886C16.5886 16.2954 16.0362 15.8145 15.3547 15.8145C14.6733 15.8145 14.1208 16.2954 14.1208 16.8886C14.1208 17.4819 14.6733 17.9628 15.3547 17.9628Z" fill="#102D35"/>
<path opacity="0.2" d="M23.0322 17.9628C23.7137 17.9628 24.2661 17.4819 24.2661 16.8886C24.2661 16.2954 23.7137 15.8145 23.0322 15.8145C22.3508 15.8145 21.7983 16.2954 21.7983 16.8886C21.7983 17.4819 22.3508 17.9628 23.0322 17.9628Z" fill="#102D35"/>
<path opacity="0.2" d="M30.8467 17.9628C31.5281 17.9628 32.0805 17.4819 32.0805 16.8886C32.0805 16.2954 31.5281 15.8145 30.8467 15.8145C30.1652 15.8145 29.6128 16.2954 29.6128 16.8886C29.6128 17.4819 30.1652 17.9628 30.8467 17.9628Z" fill="#102D35"/>
<path opacity="0.2" d="M38.6611 17.9628C39.3426 17.9628 39.895 17.4819 39.895 16.8886C39.895 16.2954 39.3426 15.8145 38.6611 15.8145C37.9797 15.8145 37.4272 16.2954 37.4272 16.8886C37.4272 17.4819 37.9797 17.9628 38.6611 17.9628Z" fill="#102D35"/>
<path opacity="0.2" d="M46.3388 17.9628C47.0203 17.9628 47.5727 17.4819 47.5727 16.8886C47.5727 16.2954 47.0203 15.8145 46.3388 15.8145C45.6574 15.8145 45.105 16.2954 45.105 16.8886C45.105 17.4819 45.6574 17.9628 46.3388 17.9628Z" fill="#102D35"/>
<path opacity="0.2" d="M54.1531 17.9628C54.8345 17.9628 55.3869 17.4819 55.3869 16.8886C55.3869 16.2954 54.8345 15.8145 54.1531 15.8145C53.4716 15.8145 52.9192 16.2954 52.9192 16.8886C52.9192 17.4819 53.4716 17.9628 54.1531 17.9628Z" fill="#102D35"/>
<path opacity="0.2" d="M61.9675 17.9628C62.649 17.9628 63.2014 17.4819 63.2014 16.8886C63.2014 16.2954 62.649 15.8145 61.9675 15.8145C61.2861 15.8145 60.7336 16.2954 60.7336 16.8886C60.7336 17.4819 61.2861 17.9628 61.9675 17.9628Z" fill="#102D35"/>
<path opacity="0.2" d="M69.645 17.9628C70.3264 17.9628 70.8789 17.4819 70.8789 16.8886C70.8789 16.2954 70.3264 15.8145 69.645 15.8145C68.9636 15.8145 68.4111 16.2954 68.4111 16.8886C68.4111 17.4819 68.9636 17.9628 69.645 17.9628Z" fill="#102D35"/>
<path opacity="0.2" d="M77.4597 17.9628C78.1412 17.9628 78.6936 17.4819 78.6936 16.8886C78.6936 16.2954 78.1412 15.8145 77.4597 15.8145C76.7783 15.8145 76.2258 16.2954 76.2258 16.8886C76.2258 17.4819 76.7783 17.9628 77.4597 17.9628Z" fill="#102D35"/>
<path opacity="0.2" d="M7.54027 24.2886C8.22172 24.2886 8.77414 23.8077 8.77414 23.2145C8.77414 22.6212 8.22172 22.1403 7.54027 22.1403C6.85882 22.1403 6.3064 22.6212 6.3064 23.2145C6.3064 23.8077 6.85882 24.2886 7.54027 24.2886Z" fill="#102D35"/>
<path opacity="0.2" d="M15.3547 24.2886C16.0362 24.2886 16.5886 23.8077 16.5886 23.2145C16.5886 22.6212 16.0362 22.1403 15.3547 22.1403C14.6733 22.1403 14.1208 22.6212 14.1208 23.2145C14.1208 23.8077 14.6733 24.2886 15.3547 24.2886Z" fill="#102D35"/>
<path opacity="0.2" d="M23.0322 24.2886C23.7137 24.2886 24.2661 23.8077 24.2661 23.2145C24.2661 22.6212 23.7137 22.1403 23.0322 22.1403C22.3508 22.1403 21.7983 22.6212 21.7983 23.2145C21.7983 23.8077 22.3508 24.2886 23.0322 24.2886Z" fill="#102D35"/>
<path opacity="0.2" d="M30.8467 24.2886C31.5281 24.2886 32.0805 23.8077 32.0805 23.2145C32.0805 22.6212 31.5281 22.1403 30.8467 22.1403C30.1652 22.1403 29.6128 22.6212 29.6128 23.2145C29.6128 23.8077 30.1652 24.2886 30.8467 24.2886Z" fill="#102D35"/>
<path opacity="0.2" d="M38.6611 24.2886C39.3426 24.2886 39.895 23.8077 39.895 23.2145C39.895 22.6212 39.3426 22.1403 38.6611 22.1403C37.9797 22.1403 37.4272 22.6212 37.4272 23.2145C37.4272 23.8077 37.9797 24.2886 38.6611 24.2886Z" fill="#102D35"/>
<path opacity="0.2" d="M46.3388 24.2886C47.0203 24.2886 47.5727 23.8077 47.5727 23.2145C47.5727 22.6212 47.0203 22.1403 46.3388 22.1403C45.6574 22.1403 45.105 22.6212 45.105 23.2145C45.105 23.8077 45.6574 24.2886 46.3388 24.2886Z" fill="#102D35"/>
<path opacity="0.2" d="M54.1531 24.2886C54.8345 24.2886 55.3869 23.8077 55.3869 23.2145C55.3869 22.6212 54.8345 22.1403 54.1531 22.1403C53.4716 22.1403 52.9192 22.6212 52.9192 23.2145C52.9192 23.8077 53.4716 24.2886 54.1531 24.2886Z" fill="#102D35"/>
<path opacity="0.2" d="M61.9675 24.2886C62.649 24.2886 63.2014 23.8077 63.2014 23.2145C63.2014 22.6212 62.649 22.1403 61.9675 22.1403C61.2861 22.1403 60.7336 22.6212 60.7336 23.2145C60.7336 23.8077 61.2861 24.2886 61.9675 24.2886Z" fill="#102D35"/>
<path opacity="0.2" d="M69.645 24.2886C70.3264 24.2886 70.8789 23.8077 70.8789 23.2145C70.8789 22.6212 70.3264 22.1403 69.645 22.1403C68.9636 22.1403 68.4111 22.6212 68.4111 23.2145C68.4111 23.8077 68.9636 24.2886 69.645 24.2886Z" fill="#102D35"/>
<path opacity="0.2" d="M77.4597 24.2886C78.1412 24.2886 78.6936 23.8077 78.6936 23.2145C78.6936 22.6212 78.1412 22.1403 77.4597 22.1403C76.7783 22.1403 76.2258 22.6212 76.2258 23.2145C76.2258 23.8077 76.7783 24.2886 77.4597 24.2886Z" fill="#102D35"/>
<path opacity="0.2" d="M7.54027 30.4952C8.22172 30.4952 8.77414 30.0143 8.77414 29.421C8.77414 28.8277 8.22172 28.3468 7.54027 28.3468C6.85882 28.3468 6.3064 28.8277 6.3064 29.421C6.3064 30.0143 6.85882 30.4952 7.54027 30.4952Z" fill="#102D35"/>
<path opacity="0.2" d="M15.3547 30.4952C16.0362 30.4952 16.5886 30.0143 16.5886 29.421C16.5886 28.8277 16.0362 28.3468 15.3547 28.3468C14.6733 28.3468 14.1208 28.8277 14.1208 29.421C14.1208 30.0143 14.6733 30.4952 15.3547 30.4952Z" fill="#102D35"/>
<path opacity="0.2" d="M23.0322 30.4952C23.7137 30.4952 24.2661 30.0143 24.2661 29.421C24.2661 28.8277 23.7137 28.3468 23.0322 28.3468C22.3508 28.3468 21.7983 28.8277 21.7983 29.421C21.7983 30.0143 22.3508 30.4952 23.0322 30.4952Z" fill="#102D35"/>
<path opacity="0.2" d="M30.8467 30.4952C31.5281 30.4952 32.0805 30.0143 32.0805 29.421C32.0805 28.8277 31.5281 28.3468 30.8467 28.3468C30.1652 28.3468 29.6128 28.8277 29.6128 29.421C29.6128 30.0143 30.1652 30.4952 30.8467 30.4952Z" fill="#102D35"/>
<path opacity="0.2" d="M38.6611 30.4952C39.3426 30.4952 39.895 30.0143 39.895 29.421C39.895 28.8277 39.3426 28.3468 38.6611 28.3468C37.9797 28.3468 37.4272 28.8277 37.4272 29.421C37.4272 30.0143 37.9797 30.4952 38.6611 30.4952Z" fill="#102D35"/>
<path opacity="0.2" d="M46.3388 30.4952C47.0203 30.4952 47.5727 30.0143 47.5727 29.421C47.5727 28.8277 47.0203 28.3468 46.3388 28.3468C45.6574 28.3468 45.105 28.8277 45.105 29.421C45.105 30.0143 45.6574 30.4952 46.3388 30.4952Z" fill="#102D35"/>
<path opacity="0.2" d="M54.1531 30.4952C54.8345 30.4952 55.3869 30.0143 55.3869 29.421C55.3869 28.8277 54.8345 28.3468 54.1531 28.3468C53.4716 28.3468 52.9192 28.8277 52.9192 29.421C52.9192 30.0143 53.4716 30.4952 54.1531 30.4952Z" fill="#102D35"/>
<path opacity="0.2" d="M61.9675 30.4952C62.649 30.4952 63.2014 30.0143 63.2014 29.421C63.2014 28.8277 62.649 28.3468 61.9675 28.3468C61.2861 28.3468 60.7336 28.8277 60.7336 29.421C60.7336 30.0143 61.2861 30.4952 61.9675 30.4952Z" fill="#102D35"/>
<path opacity="0.2" d="M69.645 30.4952C70.3264 30.4952 70.8789 30.0143 70.8789 29.421C70.8789 28.8277 70.3264 28.3468 69.645 28.3468C68.9636 28.3468 68.4111 28.8277 68.4111 29.421C68.4111 30.0143 68.9636 30.4952 69.645 30.4952Z" fill="#102D35"/>
<path opacity="0.2" d="M77.4597 30.4952C78.1412 30.4952 78.6936 30.0143 78.6936 29.421C78.6936 28.8277 78.1412 28.3468 77.4597 28.3468C76.7783 28.3468 76.2258 28.8277 76.2258 29.421C76.2258 30.0143 76.7783 30.4952 77.4597 30.4952Z" fill="#102D35"/>
<path opacity="0.2" d="M7.54027 36.821C8.22172 36.821 8.77414 36.3401 8.77414 35.7468C8.77414 35.1535 8.22172 34.6726 7.54027 34.6726C6.85882 34.6726 6.3064 35.1535 6.3064 35.7468C6.3064 36.3401 6.85882 36.821 7.54027 36.821Z" fill="#102D35"/>
<path opacity="0.2" d="M15.3547 36.821C16.0362 36.821 16.5886 36.3401 16.5886 35.7468C16.5886 35.1535 16.0362 34.6726 15.3547 34.6726C14.6733 34.6726 14.1208 35.1535 14.1208 35.7468C14.1208 36.3401 14.6733 36.821 15.3547 36.821Z" fill="#102D35"/>
<path opacity="0.2" d="M23.0322 36.821C23.7137 36.821 24.2661 36.3401 24.2661 35.7468C24.2661 35.1535 23.7137 34.6726 23.0322 34.6726C22.3508 34.6726 21.7983 35.1535 21.7983 35.7468C21.7983 36.3401 22.3508 36.821 23.0322 36.821Z" fill="#102D35"/>
<path opacity="0.2" d="M30.8467 36.821C31.5281 36.821 32.0805 36.3401 32.0805 35.7468C32.0805 35.1535 31.5281 34.6726 30.8467 34.6726C30.1652 34.6726 29.6128 35.1535 29.6128 35.7468C29.6128 36.3401 30.1652 36.821 30.8467 36.821Z" fill="#102D35"/>
<path opacity="0.2" d="M38.6611 36.821C39.3426 36.821 39.895 36.3401 39.895 35.7468C39.895 35.1535 39.3426 34.6726 38.6611 34.6726C37.9797 34.6726 37.4272 35.1535 37.4272 35.7468C37.4272 36.3401 37.9797 36.821 38.6611 36.821Z" fill="#102D35"/>
<path opacity="0.2" d="M46.3388 36.821C47.0203 36.821 47.5727 36.3401 47.5727 35.7468C47.5727 35.1535 47.0203 34.6726 46.3388 34.6726C45.6574 34.6726 45.105 35.1535 45.105 35.7468C45.105 36.3401 45.6574 36.821 46.3388 36.821Z" fill="#102D35"/>
<path opacity="0.2" d="M54.1531 36.821C54.8345 36.821 55.3869 36.3401 55.3869 35.7468C55.3869 35.1535 54.8345 34.6726 54.1531 34.6726C53.4716 34.6726 52.9192 35.1535 52.9192 35.7468C52.9192 36.3401 53.4716 36.821 54.1531 36.821Z" fill="#102D35"/>
<path opacity="0.2" d="M61.9675 36.821C62.649 36.821 63.2014 36.3401 63.2014 35.7468C63.2014 35.1535 62.649 34.6726 61.9675 34.6726C61.2861 34.6726 60.7336 35.1535 60.7336 35.7468C60.7336 36.3401 61.2861 36.821 61.9675 36.821Z" fill="#102D35"/>
<path opacity="0.2" d="M69.645 36.821C70.3264 36.821 70.8789 36.3401 70.8789 35.7468C70.8789 35.1535 70.3264 34.6726 69.645 34.6726C68.9636 34.6726 68.4111 35.1535 68.4111 35.7468C68.4111 36.3401 68.9636 36.821 69.645 36.821Z" fill="#102D35"/>
<path opacity="0.2" d="M77.4597 36.821C78.1412 36.821 78.6936 36.3401 78.6936 35.7468C78.6936 35.1535 78.1412 34.6726 77.4597 34.6726C76.7783 34.6726 76.2258 35.1535 76.2258 35.7468C76.2258 36.3401 76.7783 36.821 77.4597 36.821Z" fill="#102D35"/>
<path opacity="0.2" d="M7.54027 43.1468C8.22172 43.1468 8.77414 42.6659 8.77414 42.0726C8.77414 41.4793 8.22172 40.9984 7.54027 40.9984C6.85882 40.9984 6.3064 41.4793 6.3064 42.0726C6.3064 42.6659 6.85882 43.1468 7.54027 43.1468Z" fill="#102D35"/>
<path opacity="0.2" d="M15.3547 43.1468C16.0362 43.1468 16.5886 42.6659 16.5886 42.0726C16.5886 41.4793 16.0362 40.9984 15.3547 40.9984C14.6733 40.9984 14.1208 41.4793 14.1208 42.0726C14.1208 42.6659 14.6733 43.1468 15.3547 43.1468Z" fill="#102D35"/>
<path opacity="0.2" d="M23.0322 43.1468C23.7137 43.1468 24.2661 42.6659 24.2661 42.0726C24.2661 41.4793 23.7137 40.9984 23.0322 40.9984C22.3508 40.9984 21.7983 41.4793 21.7983 42.0726C21.7983 42.6659 22.3508 43.1468 23.0322 43.1468Z" fill="#102D35"/>
<path opacity="0.2" d="M30.8467 43.1468C31.5281 43.1468 32.0805 42.6659 32.0805 42.0726C32.0805 41.4793 31.5281 40.9984 30.8467 40.9984C30.1652 40.9984 29.6128 41.4793 29.6128 42.0726C29.6128 42.6659 30.1652 43.1468 30.8467 43.1468Z" fill="#102D35"/>
<path opacity="0.2" d="M38.6611 43.1468C39.3426 43.1468 39.895 42.6659 39.895 42.0726C39.895 41.4793 39.3426 40.9984 38.6611 40.9984C37.9797 40.9984 37.4272 41.4793 37.4272 42.0726C37.4272 42.6659 37.9797 43.1468 38.6611 43.1468Z" fill="#102D35"/>
<path opacity="0.2" d="M46.3388 43.1468C47.0203 43.1468 47.5727 42.6659 47.5727 42.0726C47.5727 41.4793 47.0203 40.9984 46.3388 40.9984C45.6574 40.9984 45.105 41.4793 45.105 42.0726C45.105 42.6659 45.6574 43.1468 46.3388 43.1468Z" fill="#102D35"/>
<path opacity="0.2" d="M54.1531 43.1468C54.8345 43.1468 55.3869 42.6659 55.3869 42.0726C55.3869 41.4793 54.8345 40.9984 54.1531 40.9984C53.4716 40.9984 52.9192 41.4793 52.9192 42.0726C52.9192 42.6659 53.4716 43.1468 54.1531 43.1468Z" fill="#102D35"/>
<path opacity="0.2" d="M61.9675 43.1468C62.649 43.1468 63.2014 42.6659 63.2014 42.0726C63.2014 41.4793 62.649 40.9984 61.9675 40.9984C61.2861 40.9984 60.7336 41.4793 60.7336 42.0726C60.7336 42.6659 61.2861 43.1468 61.9675 43.1468Z" fill="#102D35"/>
<path opacity="0.2" d="M69.645 43.1468C70.3264 43.1468 70.8789 42.6659 70.8789 42.0726C70.8789 41.4793 70.3264 40.9984 69.645 40.9984C68.9636 40.9984 68.4111 41.4793 68.4111 42.0726C68.4111 42.6659 68.9636 43.1468 69.645 43.1468Z" fill="#102D35"/>
<path opacity="0.2" d="M77.4597 43.1468C78.1412 43.1468 78.6936 42.6659 78.6936 42.0726C78.6936 41.4793 78.1412 40.9984 77.4597 40.9984C76.7783 40.9984 76.2258 41.4793 76.2258 42.0726C76.2258 42.6659 76.7783 43.1468 77.4597 43.1468Z" fill="#102D35"/>
<path opacity="0.2" d="M7.54027 49.3532C8.22172 49.3532 8.77414 48.8723 8.77414 48.279C8.77414 47.6858 8.22172 47.2048 7.54027 47.2048C6.85882 47.2048 6.3064 47.6858 6.3064 48.279C6.3064 48.8723 6.85882 49.3532 7.54027 49.3532Z" fill="#102D35"/>
<path opacity="0.2" d="M15.3547 49.3532C16.0362 49.3532 16.5886 48.8723 16.5886 48.279C16.5886 47.6858 16.0362 47.2048 15.3547 47.2048C14.6733 47.2048 14.1208 47.6858 14.1208 48.279C14.1208 48.8723 14.6733 49.3532 15.3547 49.3532Z" fill="#102D35"/>
<path opacity="0.2" d="M23.0322 49.3532C23.7137 49.3532 24.2661 48.8723 24.2661 48.279C24.2661 47.6858 23.7137 47.2048 23.0322 47.2048C22.3508 47.2048 21.7983 47.6858 21.7983 48.279C21.7983 48.8723 22.3508 49.3532 23.0322 49.3532Z" fill="#102D35"/>
<path opacity="0.2" d="M30.8467 49.3532C31.5281 49.3532 32.0805 48.8723 32.0805 48.279C32.0805 47.6858 31.5281 47.2048 30.8467 47.2048C30.1652 47.2048 29.6128 47.6858 29.6128 48.279C29.6128 48.8723 30.1652 49.3532 30.8467 49.3532Z" fill="#102D35"/>
<path opacity="0.2" d="M38.6611 49.3532C39.3426 49.3532 39.895 48.8723 39.895 48.279C39.895 47.6858 39.3426 47.2048 38.6611 47.2048C37.9797 47.2048 37.4272 47.6858 37.4272 48.279C37.4272 48.8723 37.9797 49.3532 38.6611 49.3532Z" fill="#102D35"/>
<path opacity="0.2" d="M46.3388 49.3532C47.0203 49.3532 47.5727 48.8723 47.5727 48.279C47.5727 47.6858 47.0203 47.2048 46.3388 47.2048C45.6574 47.2048 45.105 47.6858 45.105 48.279C45.105 48.8723 45.6574 49.3532 46.3388 49.3532Z" fill="#102D35"/>
<path opacity="0.2" d="M54.1531 49.3532C54.8345 49.3532 55.3869 48.8723 55.3869 48.279C55.3869 47.6858 54.8345 47.2048 54.1531 47.2048C53.4716 47.2048 52.9192 47.6858 52.9192 48.279C52.9192 48.8723 53.4716 49.3532 54.1531 49.3532Z" fill="#102D35"/>
<path opacity="0.2" d="M61.9675 49.3532C62.649 49.3532 63.2014 48.8723 63.2014 48.279C63.2014 47.6858 62.649 47.2048 61.9675 47.2048C61.2861 47.2048 60.7336 47.6858 60.7336 48.279C60.7336 48.8723 61.2861 49.3532 61.9675 49.3532Z" fill="#102D35"/>
<path opacity="0.2" d="M69.645 49.3532C70.3264 49.3532 70.8789 48.8723 70.8789 48.279C70.8789 47.6858 70.3264 47.2048 69.645 47.2048C68.9636 47.2048 68.4111 47.6858 68.4111 48.279C68.4111 48.8723 68.9636 49.3532 69.645 49.3532Z" fill="#102D35"/>
<path opacity="0.2" d="M77.4597 49.3532C78.1412 49.3532 78.6936 48.8723 78.6936 48.279C78.6936 47.6858 78.1412 47.2048 77.4597 47.2048C76.7783 47.2048 76.2258 47.6858 76.2258 48.279C76.2258 48.8723 76.7783 49.3532 77.4597 49.3532Z" fill="#102D35"/>
<path opacity="0.2" d="M7.54027 55.6789C8.22172 55.6789 8.77414 55.198 8.77414 54.6047C8.77414 54.0115 8.22172 53.5305 7.54027 53.5305C6.85882 53.5305 6.3064 54.0115 6.3064 54.6047C6.3064 55.198 6.85882 55.6789 7.54027 55.6789Z" fill="#102D35"/>
<path opacity="0.2" d="M15.3547 55.6789C16.0362 55.6789 16.5886 55.198 16.5886 54.6047C16.5886 54.0115 16.0362 53.5305 15.3547 53.5305C14.6733 53.5305 14.1208 54.0115 14.1208 54.6047C14.1208 55.198 14.6733 55.6789 15.3547 55.6789Z" fill="#102D35"/>
<path opacity="0.2" d="M23.0322 55.6789C23.7137 55.6789 24.2661 55.198 24.2661 54.6047C24.2661 54.0115 23.7137 53.5305 23.0322 53.5305C22.3508 53.5305 21.7983 54.0115 21.7983 54.6047C21.7983 55.198 22.3508 55.6789 23.0322 55.6789Z" fill="#102D35"/>
<path opacity="0.2" d="M30.8467 55.6789C31.5281 55.6789 32.0805 55.198 32.0805 54.6047C32.0805 54.0115 31.5281 53.5305 30.8467 53.5305C30.1652 53.5305 29.6128 54.0115 29.6128 54.6047C29.6128 55.198 30.1652 55.6789 30.8467 55.6789Z" fill="#102D35"/>
<path opacity="0.2" d="M38.6611 55.6789C39.3426 55.6789 39.895 55.198 39.895 54.6047C39.895 54.0115 39.3426 53.5305 38.6611 53.5305C37.9797 53.5305 37.4272 54.0115 37.4272 54.6047C37.4272 55.198 37.9797 55.6789 38.6611 55.6789Z" fill="#102D35"/>
<path opacity="0.2" d="M46.3388 55.6789C47.0203 55.6789 47.5727 55.198 47.5727 54.6047C47.5727 54.0115 47.0203 53.5305 46.3388 53.5305C45.6574 53.5305 45.105 54.0115 45.105 54.6047C45.105 55.198 45.6574 55.6789 46.3388 55.6789Z" fill="#102D35"/>
<path opacity="0.2" d="M54.1531 55.6789C54.8345 55.6789 55.3869 55.198 55.3869 54.6047C55.3869 54.0115 54.8345 53.5305 54.1531 53.5305C53.4716 53.5305 52.9192 54.0115 52.9192 54.6047C52.9192 55.198 53.4716 55.6789 54.1531 55.6789Z" fill="#102D35"/>
<path opacity="0.2" d="M61.9675 55.6789C62.649 55.6789 63.2014 55.198 63.2014 54.6047C63.2014 54.0115 62.649 53.5305 61.9675 53.5305C61.2861 53.5305 60.7336 54.0115 60.7336 54.6047C60.7336 55.198 61.2861 55.6789 61.9675 55.6789Z" fill="#102D35"/>
<path opacity="0.2" d="M69.645 55.6789C70.3264 55.6789 70.8789 55.198 70.8789 54.6047C70.8789 54.0115 70.3264 53.5305 69.645 53.5305C68.9636 53.5305 68.4111 54.0115 68.4111 54.6047C68.4111 55.198 68.9636 55.6789 69.645 55.6789Z" fill="#102D35"/>
<path opacity="0.2" d="M77.4597 55.6789C78.1412 55.6789 78.6936 55.198 78.6936 54.6047C78.6936 54.0115 78.1412 53.5305 77.4597 53.5305C76.7783 53.5305 76.2258 54.0115 76.2258 54.6047C76.2258 55.198 76.7783 55.6789 77.4597 55.6789Z" fill="#102D35"/>
<path opacity="0.2" d="M7.54027 61.8854C8.22172 61.8854 8.77414 61.4045 8.77414 60.8113C8.77414 60.218 8.22172 59.7371 7.54027 59.7371C6.85882 59.7371 6.3064 60.218 6.3064 60.8113C6.3064 61.4045 6.85882 61.8854 7.54027 61.8854Z" fill="#102D35"/>
<path opacity="0.2" d="M15.3547 61.8854C16.0362 61.8854 16.5886 61.4045 16.5886 60.8113C16.5886 60.218 16.0362 59.7371 15.3547 59.7371C14.6733 59.7371 14.1208 60.218 14.1208 60.8113C14.1208 61.4045 14.6733 61.8854 15.3547 61.8854Z" fill="#102D35"/>
<path opacity="0.2" d="M23.0322 61.8854C23.7137 61.8854 24.2661 61.4045 24.2661 60.8113C24.2661 60.218 23.7137 59.7371 23.0322 59.7371C22.3508 59.7371 21.7983 60.218 21.7983 60.8113C21.7983 61.4045 22.3508 61.8854 23.0322 61.8854Z" fill="#102D35"/>
<path opacity="0.2" d="M30.8467 61.8854C31.5281 61.8854 32.0805 61.4045 32.0805 60.8113C32.0805 60.218 31.5281 59.7371 30.8467 59.7371C30.1652 59.7371 29.6128 60.218 29.6128 60.8113C29.6128 61.4045 30.1652 61.8854 30.8467 61.8854Z" fill="#102D35"/>
<path opacity="0.2" d="M38.6611 61.8854C39.3426 61.8854 39.895 61.4045 39.895 60.8113C39.895 60.218 39.3426 59.7371 38.6611 59.7371C37.9797 59.7371 37.4272 60.218 37.4272 60.8113C37.4272 61.4045 37.9797 61.8854 38.6611 61.8854Z" fill="#102D35"/>
<path opacity="0.2" d="M46.3388 61.8854C47.0203 61.8854 47.5727 61.4045 47.5727 60.8113C47.5727 60.218 47.0203 59.7371 46.3388 59.7371C45.6574 59.7371 45.105 60.218 45.105 60.8113C45.105 61.4045 45.6574 61.8854 46.3388 61.8854Z" fill="#102D35"/>
<path opacity="0.2" d="M54.1531 61.8854C54.8345 61.8854 55.3869 61.4045 55.3869 60.8113C55.3869 60.218 54.8345 59.7371 54.1531 59.7371C53.4716 59.7371 52.9192 60.218 52.9192 60.8113C52.9192 61.4045 53.4716 61.8854 54.1531 61.8854Z" fill="#102D35"/>
<path opacity="0.2" d="M61.9675 61.8854C62.649 61.8854 63.2014 61.4045 63.2014 60.8113C63.2014 60.218 62.649 59.7371 61.9675 59.7371C61.2861 59.7371 60.7336 60.218 60.7336 60.8113C60.7336 61.4045 61.2861 61.8854 61.9675 61.8854Z" fill="#102D35"/>
<path opacity="0.2" d="M69.645 61.8854C70.3264 61.8854 70.8789 61.4045 70.8789 60.8113C70.8789 60.218 70.3264 59.7371 69.645 59.7371C68.9636 59.7371 68.4111 60.218 68.4111 60.8113C68.4111 61.4045 68.9636 61.8854 69.645 61.8854Z" fill="#102D35"/>
<path opacity="0.2" d="M77.4597 61.8854C78.1412 61.8854 78.6936 61.4045 78.6936 60.8113C78.6936 60.218 78.1412 59.7371 77.4597 59.7371C76.7783 59.7371 76.2258 60.218 76.2258 60.8113C76.2258 61.4045 76.7783 61.8854 77.4597 61.8854Z" fill="#102D35"/>
</g>
<path d="M85 68.9273C85 69.8821 84.0403 70.7176 82.9436 70.7176H2.05645C0.959677 70.7176 0 69.8821 0 68.9273C0 67.9724 0.959677 67.137 2.05645 67.137H82.9436C84.0403 67.137 85 67.9724 85 68.9273Z" fill="#FFB20F"/>
<path d="M40.4436 20.9468C44.6936 20.9468 47.984 23.9306 47.984 27.6306V54.0081C47.984 57.7081 44.6936 60.6919 40.4436 60.6919C36.1936 60.6919 32.9033 57.7081 32.9033 54.0081V27.6306C32.9033 23.9306 36.1936 20.9468 40.4436 20.9468Z" fill="#FFB20F"/>
<path d="M32.6292 27.6306C32.6292 23.9306 36.0566 20.9468 40.3066 20.9468C44.5566 20.9468 47.984 23.9306 47.984 27.6306V54.0081C47.984 57.7081 44.5566 60.6919 40.3066 60.6919" fill="#FFB20F"/>
<path d="M45.7905 22.2597C48.8066 24.8855 48.8066 29.0629 45.7905 31.6887L14.5324 59.021C11.5163 61.6468 6.71792 61.6468 3.70179 59.021C0.685665 56.3952 0.685665 52.2178 3.70179 49.592L34.9599 22.3791C37.8389 19.7533 42.7744 19.7533 45.7905 22.2597Z" fill="#FF9B00"/>
<path d="M45.7901 22.2596C48.8063 24.8855 48.8063 29.0629 45.7901 31.6887L14.5321 59.0209C11.5159 61.6467 6.71755 61.6467 3.70142 59.0209" fill="#FF9B00"/>
<path d="M83.6291 16.8887L59.6372 20.9467L63.8872 24.6467L34.8226 49.8306C31.8065 52.4564 31.8065 56.6338 34.8226 59.2596C37.8388 61.8854 42.6372 61.8854 45.6533 59.2596L74.5807 34.0758L78.8307 37.7758L83.6291 16.8887Z" fill="#FF9B00"/>
<path d="M34.8225 59.2596C37.8386 61.8854 42.637 61.8854 45.6532 59.2596L74.5806 34.0758L78.8306 37.7758L83.629 16.8887" fill="#FF9B00"/>
</svg>
