<svg width="20" height="20" viewBox="0 0 20 20" fill="none" xmlns="http://www.w3.org/2000/svg">
<path d="M19.6959 18.0606L14.7656 13.1524C16.0332 11.7099 16.7278 9.89508 16.7278 8.00573C16.7278 3.59144 12.9757 0 8.36391 0C3.75212 0 9.88385e-09 3.59144 9.88385e-09 8.00573C9.88385e-09 12.42 3.75212 16.0115 8.36391 16.0115C10.0952 16.0115 11.7451 15.5116 13.1557 14.5628L18.1235 19.5082C18.3311 19.7146 18.6104 19.8285 18.9097 19.8285C19.193 19.8285 19.4617 19.7251 19.6657 19.5371C20.0992 19.1379 20.113 18.4758 19.6959 18.0606ZM8.36391 2.08845C11.7727 2.08845 14.5459 4.74287 14.5459 8.00573C14.5459 11.2686 11.7727 13.923 8.36391 13.923C4.95507 13.923 2.18189 11.2686 2.18189 8.00573C2.18189 4.74287 4.95507 2.08845 8.36391 2.08845Z" fill="#490F83"/>
</svg>
