<svg width="48" height="58" viewBox="0 0 48 58" fill="none" xmlns="http://www.w3.org/2000/svg">
<path d="M40 22.113V16.5C40 8.505 32.822 2 24 2C15.178 2 8 8.505 8 16.5C8 17.053 8.447 17.5 9 17.5C9.553 17.5 10 17.053 10 16.5C10 9.607 16.28 4 24 4C31.72 4 38 9.607 38 16.5V22H9.229C5.243 22 2 25.243 2 29.229V48.771C2 52.757 5.243 56 9.229 56H38.771C42.757 56 46 52.757 46 48.771V29.229C46 25.663 43.401 22.699 40 22.113ZM44 48.771C44 51.654 41.654 54 38.771 54H9.229C6.346 54 4 51.654 4 48.771V29.229C4 26.346 6.346 24 9.229 24H38.771C41.654 24 44 26.346 44 29.229V48.771Z" fill="#FF9B00" stroke="#FF9B00" stroke-width="3"/>
<path d="M24 30C21.794 30 20 31.794 20 34V40C20 42.206 21.794 44 24 44C26.206 44 28 42.206 28 40V34C28 31.794 26.206 30 24 30ZM26 40C26 41.103 25.103 42 24 42C22.897 42 22 41.103 22 40V34C22 32.897 22.897 32 24 32C25.103 32 26 32.897 26 34V40Z" fill="#FF9B00" stroke="#FF9B00" stroke-width="3"/>
</svg>
