<svg width="126" height="142" viewBox="0 0 126 142" fill="none" xmlns="http://www.w3.org/2000/svg">
<path d="M32.0087 135.126C31.1327 135.126 30.3407 134.976 29.6327 134.676C28.9367 134.376 28.3847 133.944 27.9767 133.38C27.5687 132.816 27.3587 132.15 27.3467 131.382H30.0467C30.0827 131.898 30.2627 132.306 30.5867 132.606C30.9227 132.906 31.3787 133.056 31.9547 133.056C32.5427 133.056 33.0047 132.918 33.3407 132.642C33.6767 132.354 33.8447 131.982 33.8447 131.526C33.8447 131.154 33.7307 130.848 33.5027 130.608C33.2747 130.368 32.9867 130.182 32.6387 130.05C32.3027 129.906 31.8347 129.75 31.2347 129.582C30.4187 129.342 29.7527 129.108 29.2367 128.88C28.7327 128.64 28.2947 128.286 27.9227 127.818C27.5627 127.338 27.3827 126.702 27.3827 125.91C27.3827 125.166 27.5687 124.518 27.9407 123.966C28.3127 123.414 28.8347 122.994 29.5067 122.706C30.1787 122.406 30.9467 122.256 31.8107 122.256C33.1067 122.256 34.1567 122.574 34.9607 123.21C35.7767 123.834 36.2267 124.71 36.3107 125.838H33.5387C33.5147 125.406 33.3287 125.052 32.9807 124.776C32.6447 124.488 32.1947 124.344 31.6307 124.344C31.1387 124.344 30.7427 124.47 30.4427 124.722C30.1547 124.974 30.0107 125.34 30.0107 125.82C30.0107 126.156 30.1187 126.438 30.3347 126.666C30.5627 126.882 30.8387 127.062 31.1627 127.206C31.4987 127.338 31.9667 127.494 32.5667 127.674C33.3827 127.914 34.0487 128.154 34.5647 128.394C35.0807 128.634 35.5247 128.994 35.8967 129.474C36.2687 129.954 36.4547 130.584 36.4547 131.364C36.4547 132.036 36.2807 132.66 35.9327 133.236C35.5847 133.812 35.0747 134.274 34.4027 134.622C33.7307 134.958 32.9327 135.126 32.0087 135.126ZM39.9175 123.84C39.4735 123.84 39.1015 123.702 38.8015 123.426C38.5135 123.138 38.3695 122.784 38.3695 122.364C38.3695 121.944 38.5135 121.596 38.8015 121.32C39.1015 121.032 39.4735 120.888 39.9175 120.888C40.3615 120.888 40.7275 121.032 41.0155 121.32C41.3155 121.596 41.4655 121.944 41.4655 122.364C41.4655 122.784 41.3155 123.138 41.0155 123.426C40.7275 123.702 40.3615 123.84 39.9175 123.84ZM41.1595 125.028V135H38.6395V125.028H41.1595ZM47.5552 124.866C48.2992 124.866 48.9532 125.016 49.5172 125.316C50.0812 125.604 50.5252 125.982 50.8492 126.45V125.028H53.3872V135.072C53.3872 135.996 53.2012 136.818 52.8292 137.538C52.4572 138.27 51.8992 138.846 51.1552 139.266C50.4112 139.698 49.5112 139.914 48.4552 139.914C47.0392 139.914 45.8752 139.584 44.9632 138.924C44.0632 138.264 43.5532 137.364 43.4332 136.224H45.9352C46.0672 136.68 46.3492 137.04 46.7812 137.304C47.2252 137.58 47.7592 137.718 48.3832 137.718C49.1152 137.718 49.7092 137.496 50.1652 137.052C50.6212 136.62 50.8492 135.96 50.8492 135.072V133.524C50.5252 133.992 50.0752 134.382 49.4992 134.694C48.9352 135.006 48.2872 135.162 47.5552 135.162C46.7152 135.162 45.9472 134.946 45.2512 134.514C44.5552 134.082 44.0032 133.476 43.5952 132.696C43.1992 131.904 43.0012 130.998 43.0012 129.978C43.0012 128.97 43.1992 128.076 43.5952 127.296C44.0032 126.516 44.5492 125.916 45.2332 125.496C45.9292 125.076 46.7032 124.866 47.5552 124.866ZM50.8492 130.014C50.8492 129.402 50.7292 128.88 50.4892 128.448C50.2492 128.004 49.9252 127.668 49.5172 127.44C49.1092 127.2 48.6712 127.08 48.2032 127.08C47.7352 127.08 47.3032 127.194 46.9072 127.422C46.5112 127.65 46.1872 127.986 45.9352 128.43C45.6952 128.862 45.5752 129.378 45.5752 129.978C45.5752 130.578 45.6952 131.106 45.9352 131.562C46.1872 132.006 46.5112 132.348 46.9072 132.588C47.3152 132.828 47.7472 132.948 48.2032 132.948C48.6712 132.948 49.1092 132.834 49.5172 132.606C49.9252 132.366 50.2492 132.03 50.4892 131.598C50.7292 131.154 50.8492 130.626 50.8492 130.014ZM61.3744 124.884C62.5624 124.884 63.5224 125.262 64.2544 126.018C64.9864 126.762 65.3524 127.806 65.3524 129.15V135H62.8324V129.492C62.8324 128.7 62.6344 128.094 62.2384 127.674C61.8424 127.242 61.3024 127.026 60.6184 127.026C59.9224 127.026 59.3704 127.242 58.9624 127.674C58.5664 128.094 58.3684 128.7 58.3684 129.492V135H55.8484V125.028H58.3684V126.27C58.7044 125.838 59.1304 125.502 59.6464 125.262C60.1744 125.01 60.7504 124.884 61.3744 124.884ZM81.4519 125.028V135H78.9139V133.74C78.5899 134.172 78.1639 134.514 77.6359 134.766C77.1199 135.006 76.5559 135.126 75.9439 135.126C75.1639 135.126 74.4739 134.964 73.8739 134.64C73.2739 134.304 72.7999 133.818 72.4519 133.182C72.1159 132.534 71.9479 131.766 71.9479 130.878V125.028H74.4679V130.518C74.4679 131.31 74.6659 131.922 75.0619 132.354C75.4579 132.774 75.9979 132.984 76.6819 132.984C77.3779 132.984 77.9239 132.774 78.3199 132.354C78.7159 131.922 78.9139 131.31 78.9139 130.518V125.028H81.4519ZM86.4583 126.468C86.7823 126.012 87.2263 125.634 87.7903 125.334C88.3663 125.022 89.0203 124.866 89.7523 124.866C90.6043 124.866 91.3723 125.076 92.0563 125.496C92.7523 125.916 93.2983 126.516 93.6943 127.296C94.1023 128.064 94.3063 128.958 94.3063 129.978C94.3063 130.998 94.1023 131.904 93.6943 132.696C93.2983 133.476 92.7523 134.082 92.0563 134.514C91.3723 134.946 90.6043 135.162 89.7523 135.162C89.0203 135.162 88.3723 135.012 87.8083 134.712C87.2563 134.412 86.8063 134.034 86.4583 133.578V139.752H83.9383V125.028H86.4583V126.468ZM91.7323 129.978C91.7323 129.378 91.6063 128.862 91.3543 128.43C91.1143 127.986 90.7903 127.65 90.3823 127.422C89.9863 127.194 89.5543 127.08 89.0863 127.08C88.6303 127.08 88.1983 127.2 87.7903 127.44C87.3943 127.668 87.0703 128.004 86.8183 128.448C86.5783 128.892 86.4583 129.414 86.4583 130.014C86.4583 130.614 86.5783 131.136 86.8183 131.58C87.0703 132.024 87.3943 132.366 87.7903 132.606C88.1983 132.834 88.6303 132.948 89.0863 132.948C89.5543 132.948 89.9863 132.828 90.3823 132.588C90.7903 132.348 91.1143 132.006 91.3543 131.562C91.6063 131.118 91.7323 130.59 91.7323 129.978ZM97.2535 135.126C96.7975 135.126 96.4195 134.988 96.1195 134.712C95.8315 134.424 95.6875 134.07 95.6875 133.65C95.6875 133.23 95.8315 132.882 96.1195 132.606C96.4195 132.318 96.7975 132.174 97.2535 132.174C97.6975 132.174 98.0635 132.318 98.3515 132.606C98.6395 132.882 98.7835 133.23 98.7835 133.65C98.7835 134.07 98.6395 134.424 98.3515 134.712C98.0635 134.988 97.6975 135.126 97.2535 135.126Z" fill="#2E2828"/>
<g filter="url(#filter0_d)">
<ellipse cx="63" cy="58.5" rx="48" ry="48.5" fill="white"/>
<path d="M110.5 58.5C110.5 85.0146 89.2287 106.5 63 106.5C36.7713 106.5 15.5 85.0146 15.5 58.5C15.5 31.9854 36.7713 10.5 63 10.5C89.2287 10.5 110.5 31.9854 110.5 58.5Z" stroke="#D9D4D4"/>
</g>
<path d="M47.5627 59.3035L63.4952 45.8934L79.4277 59.3035C80.4699 60.2949 82.1718 60.2949 83.2087 59.3035C84.2617 58.3121 84.2617 56.7035 83.2194 55.7069L65.4258 40.7388C64.894 40.233 64.1973 39.9901 63.5007 40.0003C62.7988 39.9901 62.1021 40.233 61.5703 40.7388L43.7817 55.7069C42.7394 56.6984 42.7394 58.3121 43.7817 59.3035C44.8239 60.2949 46.5204 60.2951 47.5627 59.3035Z" fill="#02686F"/>
<path d="M65.4258 58.8794C64.894 58.3736 64.1973 58.1307 63.5007 58.1409C62.7988 58.1307 62.1021 58.3736 61.5703 58.8794L43.7817 73.8425C42.7394 74.839 42.7394 76.4527 43.7817 77.439C44.8239 78.4355 46.5204 78.4355 47.5627 77.439L63.4952 64.039L79.4277 77.439C80.4699 78.4355 82.1718 78.4355 83.2087 77.439C84.2509 76.4525 84.2509 74.839 83.2087 73.8425L65.4258 58.8794Z" fill="#02686F"/>
<defs>
<filter id="filter0_d" x="0" y="0" width="126" height="127" filterUnits="userSpaceOnUse" color-interpolation-filters="sRGB">
<feFlood flood-opacity="0" result="BackgroundImageFix"/>
<feColorMatrix in="SourceAlpha" type="matrix" values="0 0 0 0 0 0 0 0 0 0 0 0 0 0 0 0 0 0 127 0"/>
<feOffset dy="5"/>
<feGaussianBlur stdDeviation="7.5"/>
<feColorMatrix type="matrix" values="0 0 0 0 0 0 0 0 0 0 0 0 0 0 0 0 0 0 0.25 0"/>
<feBlend mode="normal" in2="BackgroundImageFix" result="effect1_dropShadow"/>
<feBlend mode="normal" in="SourceGraphic" in2="effect1_dropShadow" result="shape"/>
</filter>
</defs>
</svg>
