<svg width="133" height="139" viewBox="0 0 133 139" fill="none" xmlns="http://www.w3.org/2000/svg">
<g filter="url(#filter0_d)">
<ellipse cx="63" cy="58.5" rx="48" ry="48.5" fill="white"/>
</g>
<path d="M13.6 119.436V127.212C13.6 128.064 13.822 128.718 14.266 129.174C14.71 129.618 15.334 129.84 16.138 129.84C16.954 129.84 17.584 129.618 18.028 129.174C18.472 128.718 18.694 128.064 18.694 127.212V119.436H21.232V127.194C21.232 128.262 20.998 129.168 20.53 129.912C20.074 130.644 19.456 131.196 18.676 131.568C17.908 131.94 17.05 132.126 16.102 132.126C15.166 132.126 14.314 131.94 13.546 131.568C12.79 131.196 12.19 130.644 11.746 129.912C11.302 129.168 11.08 128.262 11.08 127.194V119.436H13.6ZM26.1868 123.468C26.5108 123.012 26.9548 122.634 27.5188 122.334C28.0948 122.022 28.7488 121.866 29.4808 121.866C30.3328 121.866 31.1008 122.076 31.7848 122.496C32.4808 122.916 33.0268 123.516 33.4228 124.296C33.8308 125.064 34.0348 125.958 34.0348 126.978C34.0348 127.998 33.8308 128.904 33.4228 129.696C33.0268 130.476 32.4808 131.082 31.7848 131.514C31.1008 131.946 30.3328 132.162 29.4808 132.162C28.7488 132.162 28.1008 132.012 27.5368 131.712C26.9848 131.412 26.5348 131.034 26.1868 130.578V136.752H23.6668V122.028H26.1868V123.468ZM31.4608 126.978C31.4608 126.378 31.3348 125.862 31.0828 125.43C30.8428 124.986 30.5188 124.65 30.1108 124.422C29.7148 124.194 29.2828 124.08 28.8148 124.08C28.3588 124.08 27.9268 124.2 27.5188 124.44C27.1228 124.668 26.7988 125.004 26.5468 125.448C26.3068 125.892 26.1868 126.414 26.1868 127.014C26.1868 127.614 26.3068 128.136 26.5468 128.58C26.7988 129.024 27.1228 129.366 27.5188 129.606C27.9268 129.834 28.3588 129.948 28.8148 129.948C29.2828 129.948 29.7148 129.828 30.1108 129.588C30.5188 129.348 30.8428 129.006 31.0828 128.562C31.3348 128.118 31.4608 127.59 31.4608 126.978ZM38.386 118.68V132H35.866V118.68H38.386ZM45.3038 132.162C44.3438 132.162 43.4798 131.952 42.7118 131.532C41.9438 131.1 41.3378 130.494 40.8938 129.714C40.4618 128.934 40.2458 128.034 40.2458 127.014C40.2458 125.994 40.4678 125.094 40.9118 124.314C41.3678 123.534 41.9858 122.934 42.7658 122.514C43.5458 122.082 44.4158 121.866 45.3758 121.866C46.3358 121.866 47.2058 122.082 47.9858 122.514C48.7658 122.934 49.3778 123.534 49.8218 124.314C50.2778 125.094 50.5058 125.994 50.5058 127.014C50.5058 128.034 50.2718 128.934 49.8038 129.714C49.3478 130.494 48.7238 131.1 47.9318 131.532C47.1518 131.952 46.2758 132.162 45.3038 132.162ZM45.3038 129.966C45.7598 129.966 46.1858 129.858 46.5818 129.642C46.9898 129.414 47.3138 129.078 47.5538 128.634C47.7938 128.19 47.9138 127.65 47.9138 127.014C47.9138 126.066 47.6618 125.34 47.1578 124.836C46.6658 124.32 46.0598 124.062 45.3398 124.062C44.6198 124.062 44.0138 124.32 43.5218 124.836C43.0418 125.34 42.8018 126.066 42.8018 127.014C42.8018 127.962 43.0358 128.694 43.5038 129.21C43.9838 129.714 44.5838 129.966 45.3038 129.966ZM51.7063 126.978C51.7063 125.97 51.9043 125.076 52.3003 124.296C52.7083 123.516 53.2543 122.916 53.9383 122.496C54.6343 122.076 55.4083 121.866 56.2603 121.866C57.0043 121.866 57.6523 122.016 58.2043 122.316C58.7683 122.616 59.2183 122.994 59.5543 123.45V122.028H62.0923V132H59.5543V130.542C59.2303 131.01 58.7803 131.4 58.2043 131.712C57.6403 132.012 56.9863 132.162 56.2423 132.162C55.4023 132.162 54.6343 131.946 53.9383 131.514C53.2543 131.082 52.7083 130.476 52.3003 129.696C51.9043 128.904 51.7063 127.998 51.7063 126.978ZM59.5543 127.014C59.5543 126.402 59.4343 125.88 59.1943 125.448C58.9543 125.004 58.6303 124.668 58.2223 124.44C57.8143 124.2 57.3763 124.08 56.9083 124.08C56.4403 124.08 56.0083 124.194 55.6123 124.422C55.2163 124.65 54.8923 124.986 54.6403 125.43C54.4003 125.862 54.2803 126.378 54.2803 126.978C54.2803 127.578 54.4003 128.106 54.6403 128.562C54.8923 129.006 55.2163 129.348 55.6123 129.588C56.0203 129.828 56.4523 129.948 56.9083 129.948C57.3763 129.948 57.8143 129.834 58.2223 129.606C58.6303 129.366 58.9543 129.03 59.1943 128.598C59.4343 128.154 59.5543 127.626 59.5543 127.014ZM63.9055 126.978C63.9055 125.97 64.1035 125.076 64.4995 124.296C64.9075 123.516 65.4595 122.916 66.1555 122.496C66.8515 122.076 67.6255 121.866 68.4775 121.866C69.1255 121.866 69.7435 122.01 70.3315 122.298C70.9195 122.574 71.3875 122.946 71.7355 123.414V118.68H74.2915V132H71.7355V130.524C71.4235 131.016 70.9855 131.412 70.4215 131.712C69.8575 132.012 69.2035 132.162 68.4595 132.162C67.6195 132.162 66.8515 131.946 66.1555 131.514C65.4595 131.082 64.9075 130.476 64.4995 129.696C64.1035 128.904 63.9055 127.998 63.9055 126.978ZM71.7535 127.014C71.7535 126.402 71.6335 125.88 71.3935 125.448C71.1535 125.004 70.8295 124.668 70.4215 124.44C70.0135 124.2 69.5755 124.08 69.1075 124.08C68.6395 124.08 68.2075 124.194 67.8115 124.422C67.4155 124.65 67.0915 124.986 66.8395 125.43C66.5995 125.862 66.4795 126.378 66.4795 126.978C66.4795 127.578 66.5995 128.106 66.8395 128.562C67.0915 129.006 67.4155 129.348 67.8115 129.588C68.2195 129.828 68.6515 129.948 69.1075 129.948C69.5755 129.948 70.0135 129.834 70.4215 129.606C70.8295 129.366 71.1535 129.03 71.3935 128.598C71.6335 128.154 71.7535 127.626 71.7535 127.014ZM80.3938 126.978C80.3938 125.97 80.5918 125.076 80.9878 124.296C81.3958 123.516 81.9478 122.916 82.6438 122.496C83.3398 122.076 84.1138 121.866 84.9658 121.866C85.6138 121.866 86.2318 122.01 86.8198 122.298C87.4078 122.574 87.8758 122.946 88.2238 123.414V118.68H90.7798V132H88.2238V130.524C87.9118 131.016 87.4738 131.412 86.9098 131.712C86.3458 132.012 85.6918 132.162 84.9478 132.162C84.1078 132.162 83.3398 131.946 82.6438 131.514C81.9478 131.082 81.3958 130.476 80.9878 129.696C80.5918 128.904 80.3938 127.998 80.3938 126.978ZM88.2418 127.014C88.2418 126.402 88.1218 125.88 87.8818 125.448C87.6418 125.004 87.3178 124.668 86.9098 124.44C86.5018 124.2 86.0638 124.08 85.5958 124.08C85.1278 124.08 84.6958 124.194 84.2998 124.422C83.9038 124.65 83.5798 124.986 83.3278 125.43C83.0878 125.862 82.9678 126.378 82.9678 126.978C82.9678 127.578 83.0878 128.106 83.3278 128.562C83.5798 129.006 83.9038 129.348 84.2998 129.588C84.7078 129.828 85.1398 129.948 85.5958 129.948C86.0638 129.948 86.5018 129.834 86.9098 129.606C87.3178 129.366 87.6418 129.03 87.8818 128.598C88.1218 128.154 88.2418 127.626 88.2418 127.014ZM102.511 126.798C102.511 127.158 102.487 127.482 102.439 127.77H95.149C95.209 128.49 95.461 129.054 95.905 129.462C96.349 129.87 96.895 130.074 97.543 130.074C98.479 130.074 99.145 129.672 99.541 128.868H102.259C101.971 129.828 101.419 130.62 100.603 131.244C99.787 131.856 98.785 132.162 97.597 132.162C96.637 132.162 95.773 131.952 95.005 131.532C94.249 131.1 93.655 130.494 93.223 129.714C92.803 128.934 92.593 128.034 92.593 127.014C92.593 125.982 92.803 125.076 93.223 124.296C93.643 123.516 94.231 122.916 94.987 122.496C95.743 122.076 96.613 121.866 97.597 121.866C98.545 121.866 99.391 122.07 100.135 122.478C100.891 122.886 101.473 123.468 101.881 124.224C102.301 124.968 102.511 125.826 102.511 126.798ZM99.901 126.078C99.889 125.43 99.655 124.914 99.199 124.53C98.743 124.134 98.185 123.936 97.525 123.936C96.901 123.936 96.373 124.128 95.941 124.512C95.521 124.884 95.263 125.406 95.167 126.078H99.901ZM103.702 126.978C103.702 125.97 103.9 125.076 104.296 124.296C104.704 123.516 105.25 122.916 105.934 122.496C106.63 122.076 107.404 121.866 108.256 121.866C109 121.866 109.648 122.016 110.2 122.316C110.764 122.616 111.214 122.994 111.55 123.45V122.028H114.088V132H111.55V130.542C111.226 131.01 110.776 131.4 110.2 131.712C109.636 132.012 108.982 132.162 108.238 132.162C107.398 132.162 106.63 131.946 105.934 131.514C105.25 131.082 104.704 130.476 104.296 129.696C103.9 128.904 103.702 127.998 103.702 126.978ZM111.55 127.014C111.55 126.402 111.43 125.88 111.19 125.448C110.95 125.004 110.626 124.668 110.218 124.44C109.81 124.2 109.372 124.08 108.904 124.08C108.436 124.08 108.004 124.194 107.608 124.422C107.212 124.65 106.888 124.986 106.636 125.43C106.396 125.862 106.276 126.378 106.276 126.978C106.276 127.578 106.396 128.106 106.636 128.562C106.888 129.006 107.212 129.348 107.608 129.588C108.016 129.828 108.448 129.948 108.904 129.948C109.372 129.948 109.81 129.834 110.218 129.606C110.626 129.366 110.95 129.03 111.19 128.598C111.43 128.154 111.55 127.626 111.55 127.014ZM119.07 118.68V132H116.55V118.68H119.07ZM125.375 132.162C124.559 132.162 123.827 132.018 123.179 131.73C122.531 131.43 122.015 131.028 121.631 130.524C121.259 130.02 121.055 129.462 121.019 128.85H123.557C123.605 129.234 123.791 129.552 124.115 129.804C124.451 130.056 124.865 130.182 125.357 130.182C125.837 130.182 126.209 130.086 126.473 129.894C126.749 129.702 126.887 129.456 126.887 129.156C126.887 128.832 126.719 128.592 126.383 128.436C126.059 128.268 125.537 128.088 124.817 127.896C124.073 127.716 123.461 127.53 122.981 127.338C122.513 127.146 122.105 126.852 121.757 126.456C121.421 126.06 121.253 125.526 121.253 124.854C121.253 124.302 121.409 123.798 121.721 123.342C122.045 122.886 122.501 122.526 123.089 122.262C123.689 121.998 124.391 121.866 125.195 121.866C126.383 121.866 127.331 122.166 128.039 122.766C128.747 123.354 129.137 124.152 129.209 125.16H126.797C126.761 124.764 126.593 124.452 126.293 124.224C126.005 123.984 125.615 123.864 125.123 123.864C124.667 123.864 124.313 123.948 124.061 124.116C123.821 124.284 123.701 124.518 123.701 124.818C123.701 125.154 123.869 125.412 124.205 125.592C124.541 125.76 125.063 125.934 125.771 126.114C126.491 126.294 127.085 126.48 127.553 126.672C128.021 126.864 128.423 127.164 128.759 127.572C129.107 127.968 129.287 128.496 129.299 129.156C129.299 129.732 129.137 130.248 128.813 130.704C128.501 131.16 128.045 131.52 127.445 131.784C126.857 132.036 126.167 132.162 125.375 132.162Z" fill="#2E2828"/>
<path d="M80.9326 44.4938C80.3145 34.7395 72.4963 27 62.9749 27C53.451 27 45.6315 34.7428 45.0167 44.5006C36.5018 45.616 30 53.1695 30 62.233C30 72.1001 37.7094 80.1279 47.1857 80.1279H73.3211C74.0644 80.1279 74.6673 79.5002 74.6673 78.7261C74.6673 77.9521 74.0644 77.3244 73.3211 77.3244H47.1857C39.194 77.3241 32.6924 70.5542 32.6924 62.233C32.6924 54.2253 38.713 47.6151 46.3986 47.1846C47.113 47.1446 47.6726 46.5297 47.6726 45.7849C47.6726 45.7571 47.6719 45.7297 47.6703 45.7019C47.6905 36.9324 54.5482 29.8036 62.9749 29.8036C71.4029 29.8036 78.2617 36.9335 78.2794 45.7052C78.2783 45.7323 78.2774 45.7608 78.2774 45.7821C78.2774 46.5288 78.8395 47.1444 79.5554 47.182C87.267 47.5887 93.3075 54.1998 93.3075 62.2327C93.3075 66.7946 91.356 71.0642 87.9532 73.9465C87.3763 74.435 87.2893 75.3179 87.7584 75.9184C88.2276 76.519 89.0755 76.6097 89.6521 76.1212C93.6863 72.7041 96 67.642 96 62.2325C96 53.1412 89.4762 45.5849 80.9326 44.4938Z" fill="#02686F"/>
<path d="M61.6289 52.1616V70.0369C61.6289 70.8109 62.2318 71.4387 62.9751 71.4387C63.7185 71.4387 64.3214 70.8109 64.3214 70.0369V52.1616C64.3214 51.3875 63.7185 50.7598 62.9751 50.7598C62.2318 50.7598 61.6289 51.3875 61.6289 52.1616Z" fill="#02686F"/>
<path d="M70.6752 54.7623C71.0198 54.7623 71.3643 54.6254 71.6272 54.3518C72.1529 53.8044 72.1529 52.9169 71.6272 52.3695L63.9275 44.352C63.4018 43.8046 62.5492 43.8046 62.0237 44.352L54.324 52.3695C53.7983 52.9169 53.7983 53.8044 54.324 54.3518C54.8497 54.8992 55.7023 54.8992 56.2277 54.3518L62.9755 47.3256L69.7232 54.3518C69.9862 54.6254 70.3308 54.7623 70.6752 54.7623Z" fill="#02686F"/>
<defs>
<filter id="filter0_d" x="0" y="0" width="126" height="127" filterUnits="userSpaceOnUse" color-interpolation-filters="sRGB">
<feFlood flood-opacity="0" result="BackgroundImageFix"/>
<feColorMatrix in="SourceAlpha" type="matrix" values="0 0 0 0 0 0 0 0 0 0 0 0 0 0 0 0 0 0 127 0"/>
<feOffset dy="5"/>
<feGaussianBlur stdDeviation="7.5"/>
<feColorMatrix type="matrix" values="0 0 0 0 0 0 0 0 0 0 0 0 0 0 0 0 0 0 0.25 0"/>
<feBlend mode="normal" in2="BackgroundImageFix" result="effect1_dropShadow"/>
<feBlend mode="normal" in="SourceGraphic" in2="effect1_dropShadow" result="shape"/>
</filter>
</defs>
</svg>
