<svg width="48" height="46" viewBox="0 0 48 46" fill="none" xmlns="http://www.w3.org/2000/svg">
<path d="M45.9091 42.4523H44.5001V5.16056C44.5001 2.31542 42.3933 0 39.8035 0H26.8879C24.2983 0 22.1913 2.31542 22.1913 5.16056V12.0091C21.8137 11.9208 21.4248 11.8587 21.0171 11.8587H8.10161C5.51197 11.8587 3.40501 13.7571 3.40501 16.0922V42.4522H1.40899C0.631174 42.4523 0 43.0836 0 43.8613C0 44.639 0.631174 45.2703 1.40899 45.2703H45.9091C46.6868 45.2703 47.3181 44.6391 47.3181 43.8613C47.3181 43.0835 46.6869 42.4523 45.9091 42.4523ZM7.16225 16.0923C7.16225 15.9542 7.49193 15.6161 8.10161 15.6161H21.0172C21.6268 15.6161 21.9566 15.9533 21.9566 16.0923V42.4523H7.16225V16.0923ZM25.9486 5.16056C25.9486 4.33306 26.4437 3.75723 26.888 3.75723H39.8036C40.2479 3.75723 40.743 4.33306 40.743 5.16056V42.4524H25.9486V5.16056Z" fill="#FF9B00"/>
<path d="M31.0639 5.3457H28.741C27.9904 5.3457 27.3809 5.95434 27.3809 6.70581V9.02875C27.3809 9.77929 27.9895 10.3889 28.741 10.3889H31.0639C31.8145 10.3889 32.424 9.78022 32.424 9.02875V6.70581C32.424 5.95434 31.8145 5.3457 31.0639 5.3457Z" fill="#FF9B00"/>
<path d="M31.0639 11.9219H28.741C27.9904 11.9219 27.3809 12.5305 27.3809 13.282V15.6049C27.3809 16.3555 27.9895 16.965 28.741 16.965H31.0639C31.8145 16.965 32.424 16.3564 32.424 15.6049V13.282C32.424 12.5305 31.8145 11.9219 31.0639 11.9219Z" fill="#FF9B00"/>
<path d="M31.0639 18.4961H28.741C27.9904 18.4961 27.3809 19.1047 27.3809 19.8562V22.1791C27.3809 22.9297 27.9895 23.5392 28.741 23.5392H31.0639C31.8145 23.5392 32.424 22.9306 32.424 22.1791V19.8562C32.424 19.1047 31.8145 18.4961 31.0639 18.4961Z" fill="#FF9B00"/>
<path d="M37.9506 5.3457H35.6277C34.8771 5.3457 34.2676 5.95434 34.2676 6.70581V9.02875C34.2676 9.77929 34.8762 10.3889 35.6277 10.3889H37.9506C38.7012 10.3889 39.3107 9.78022 39.3107 9.02875V6.70581C39.3107 5.95434 38.7021 5.3457 37.9506 5.3457Z" fill="#FF9B00"/>
<path d="M37.9506 11.9219H35.6277C34.8771 11.9219 34.2676 12.5305 34.2676 13.282V15.6049C34.2676 16.3555 34.8762 16.965 35.6277 16.965H37.9506C38.7012 16.965 39.3107 16.3564 39.3107 15.6049V13.282C39.3107 12.5305 38.7021 11.9219 37.9506 11.9219Z" fill="#FF9B00"/>
<path d="M37.9506 18.4961H35.6277C34.8771 18.4961 34.2676 19.1047 34.2676 19.8562V22.1791C34.2676 22.9297 34.8762 23.5392 35.6277 23.5392H37.9506C38.7012 23.5392 39.3107 22.9306 39.3107 22.1791V19.8562C39.3107 19.1047 38.7021 18.4961 37.9506 18.4961Z" fill="#FF9B00"/>
<path d="M31.0639 25.0703H28.741C27.9904 25.0703 27.3809 25.679 27.3809 26.4304V28.7534C27.3809 29.5039 27.9895 30.1135 28.741 30.1135H31.0639C31.8145 30.1135 32.424 29.5048 32.424 28.7534V26.4304C32.424 25.679 31.8145 25.0703 31.0639 25.0703Z" fill="#FF9B00"/>
<path d="M31.0639 31.6465H28.741C27.9904 31.6465 27.3809 32.2551 27.3809 33.0066V35.3295C27.3809 36.0801 27.9895 36.6896 28.741 36.6896H31.0639C31.8145 36.6896 32.424 36.081 32.424 35.3295V33.0066C32.424 32.2551 31.8145 31.6465 31.0639 31.6465Z" fill="#FF9B00"/>
<path d="M37.9506 25.0703H35.6277C34.8771 25.0703 34.2676 25.679 34.2676 26.4304V28.7534C34.2676 29.5039 34.8762 30.1135 35.6277 30.1135H37.9506C38.7012 30.1135 39.3107 29.5048 39.3107 28.7534V26.4304C39.3107 25.679 38.7021 25.0703 37.9506 25.0703Z" fill="#FF9B00"/>
<path d="M37.9506 31.6465H35.6277C34.8771 31.6465 34.2676 32.2551 34.2676 33.0066V35.3295C34.2676 36.0801 34.8762 36.6896 35.6277 36.6896H37.9506C38.7012 36.6896 39.3107 36.081 39.3107 35.3295V33.0066C39.3107 32.2551 38.7021 31.6465 37.9506 31.6465Z" fill="#FF9B00"/>
<path d="M12.2767 18.4961H9.95386C9.20331 18.4961 8.59375 19.1047 8.59375 19.8562V22.1791C8.59375 22.9297 9.20239 23.5392 9.95386 23.5392H12.2768C13.0273 23.5392 13.6369 22.9306 13.6369 22.1791V19.8562C13.6369 19.1047 13.0272 18.4961 12.2767 18.4961Z" fill="#FF9B00"/>
<path d="M19.1655 18.4961H16.8425C16.092 18.4961 15.4824 19.1047 15.4824 19.8562V22.1791C15.4824 22.9297 16.0911 23.5392 16.8425 23.5392H19.1655C19.916 23.5392 20.5256 22.9306 20.5256 22.1791V19.8562C20.5256 19.1047 19.9169 18.4961 19.1655 18.4961Z" fill="#FF9B00"/>
<path d="M12.2767 25.0703H9.95386C9.20331 25.0703 8.59375 25.679 8.59375 26.4304V28.7534C8.59375 29.5039 9.20239 30.1135 9.95386 30.1135H12.2768C13.0273 30.1135 13.6369 29.5048 13.6369 28.7534V26.4304C13.6369 25.679 13.0272 25.0703 12.2767 25.0703Z" fill="#FF9B00"/>
<path d="M12.2767 31.6465H9.95386C9.20331 31.6465 8.59375 32.2551 8.59375 33.0066V35.3295C8.59375 36.0801 9.20239 36.6896 9.95386 36.6896H12.2768C13.0273 36.6896 13.6369 36.081 13.6369 35.3295V33.0066C13.6369 32.2551 13.0272 31.6465 12.2767 31.6465Z" fill="#FF9B00"/>
<path d="M19.1655 25.0703H16.8425C16.092 25.0703 15.4824 25.679 15.4824 26.4304V28.7534C15.4824 29.5039 16.0911 30.1135 16.8425 30.1135H19.1655C19.916 30.1135 20.5256 29.5048 20.5256 28.7534V26.4304C20.5256 25.679 19.9169 25.0703 19.1655 25.0703Z" fill="#FF9B00"/>
<path d="M19.1655 31.6465H16.8425C16.092 31.6465 15.4824 32.2551 15.4824 33.0066V35.3295C15.4824 36.0801 16.0911 36.6896 16.8425 36.6896H19.1655C19.916 36.6896 20.5256 36.081 20.5256 35.3295V33.0066C20.5256 32.2551 19.9169 31.6465 19.1655 31.6465Z" fill="#FF9B00"/>
</svg>
