<svg width="53" height="48" viewBox="0 0 53 48" fill="none" xmlns="http://www.w3.org/2000/svg">
<path d="M15.8255 27.7546C17.2981 27.7546 18.7214 27.6595 20.0683 27.4824V12.7193C18.7216 12.5424 17.2981 12.4473 15.8255 12.4473C7.41758 12.4473 0.601562 15.5386 0.601562 19.3521V20.8496C0.601563 24.663 7.41758 27.7546 15.8255 27.7546Z" fill="#FF9B00"/>
<path d="M15.8255 35.465C17.2981 35.465 18.7214 35.3699 20.0683 35.1931V30.8657C18.7212 31.0427 17.2985 31.1391 15.8255 31.1391C8.4863 31.1391 2.36063 28.7835 0.921748 25.6484C0.712205 26.1051 0.601562 26.5779 0.601562 27.0627V28.5601C0.601563 32.3736 7.41758 35.465 15.8255 35.465Z" fill="#FF9B00"/>
<path d="M20.0683 38.9091V38.5728C18.7212 38.7497 17.2985 38.8461 15.8255 38.8461C8.4863 38.8461 2.36063 36.4905 0.921748 33.3555C0.712205 33.812 0.601562 34.2848 0.601562 34.7696V36.267C0.601562 40.0807 7.41758 43.172 15.8255 43.172C17.507 43.172 19.1242 43.0481 20.6365 42.8197C20.2617 42.0529 20.0683 41.2443 20.0683 40.4065V38.9091Z" fill="#FF9B00"/>
<path d="M37.7767 0.753906C29.3688 0.753906 22.5527 3.84525 22.5527 7.65878V9.15624C22.5527 12.9698 29.3688 16.0611 37.7767 16.0611C46.1845 16.0611 53.0007 12.9698 53.0007 9.15624V7.65878C53.0007 3.84525 46.1845 0.753906 37.7767 0.753906Z" fill="#FF9B00"/>
<path d="M37.7767 19.4438C30.4375 19.4438 24.3118 17.0883 22.8729 13.9531C22.6634 14.4097 22.5527 14.8825 22.5527 15.3673V16.8648C22.5527 20.6783 29.3688 23.7697 37.7767 23.7697C46.1845 23.7697 53.0007 20.6783 53.0007 16.8648V15.3673C53.0007 14.8825 52.89 14.4097 52.6805 13.9531C51.2416 17.0883 45.1159 19.4438 37.7767 19.4438Z" fill="#FF9B00"/>
<path d="M37.7767 27.1528C30.4375 27.1528 24.3118 24.7972 22.8729 21.6621C22.6634 22.1186 22.5527 22.5915 22.5527 23.0763V24.5738C22.5527 28.3874 29.3688 31.4788 37.7767 31.4788C46.1845 31.4788 53.0007 28.3874 53.0007 24.5738V23.0763C53.0007 22.5915 52.89 22.1186 52.6805 21.6621C51.2416 24.7973 45.1159 27.1528 37.7767 27.1528Z" fill="#FF9B00"/>
<path d="M37.7767 35.2778C30.4375 35.2778 24.3118 32.9222 22.8729 29.7871C22.6634 30.2438 22.5527 30.7165 22.5527 31.2012V32.6988C22.5527 36.5123 29.3688 39.6037 37.7767 39.6037C46.1845 39.6037 53.0007 36.5123 53.0007 32.6988V31.2012C53.0007 30.7165 52.89 30.2435 52.6805 29.7871C51.2416 32.922 45.1159 35.2778 37.7767 35.2778Z" fill="#FF9B00"/>
<path d="M37.7767 42.9867C30.4375 42.9867 24.3118 40.6313 22.8729 37.4962C22.6634 37.9529 22.5527 38.4259 22.5527 38.9103V40.4078C22.5527 44.2213 29.3688 47.3126 37.7767 47.3126C46.1845 47.3126 53.0007 44.2213 53.0007 40.4078V38.9102C53.0007 38.4255 52.89 37.9525 52.6805 37.4961C51.2416 40.6311 45.1159 42.9867 37.7767 42.9867Z" fill="#FF9B00"/>
</svg>
