<svg width="16" height="15" viewBox="0 0 16 15" fill="none" xmlns="http://www.w3.org/2000/svg">
<path d="M15.9878 5.64959C15.9878 5.62553 15.9824 5.58918 15.973 5.56825C15.9484 5.47906 15.8938 5.39759 15.812 5.34072L13.5216 3.74859V2.04184C13.5216 1.81559 13.3381 1.63209 13.1118 1.63209H10.4769L8.23491 0.0734031C8.09478 -0.0241282 7.90875 -0.0245345 7.76819 0.0725905L5.51175 1.63209H2.88831C2.662 1.63209 2.47856 1.81559 2.47856 2.04184V3.7285L0.177062 5.31915C0.0638437 5.3974 0.00259375 5.5225 0.00065625 5.6504C0.00053125 5.65281 0 5.65509 0 5.65759L0.0122188 14.5399C0.012375 14.6486 0.0556875 14.7527 0.132594 14.8295C0.209406 14.9061 0.313469 14.9491 0.421969 14.9491C0.422188 14.9491 0.422344 14.9491 0.422531 14.9491L15.5908 14.9282C15.8171 14.9279 16.0003 14.7442 16 14.5179L15.9878 5.64959ZM13.5216 4.74668L14.8309 5.65662L13.5216 6.56687V4.74668ZM8.00047 0.908434L9.04141 1.63206H6.95353L8.00047 0.908434ZM3.29806 2.45159H12.7021V7.13662L9.54469 9.33169L8.25737 8.33312C8.25537 8.33156 8.25366 8.33059 8.25172 8.32918C8.10784 8.22125 7.90434 8.21728 7.75503 8.33312L6.45837 9.3389L3.29806 7.15475V2.45159ZM2.47856 4.72465V6.5884L1.13025 5.65656L2.47856 4.72465ZM0.820562 6.43915L5.77897 9.86587L0.830562 13.7041L0.820562 6.43915ZM1.62109 14.128L8.00622 9.17534L14.3684 14.1104L1.62109 14.128ZM10.2233 9.85803L15.1694 6.4194L15.1794 13.7025L10.2233 9.85803Z" fill="white"/>
<path d="M10.7742 4.08984H5.22616C4.99991 4.08984 4.81641 4.27334 4.81641 4.49959C4.81641 4.72584 4.99991 4.90934 5.22616 4.90934H10.7742C11.0005 4.90934 11.1839 4.72584 11.1839 4.49959C11.1839 4.27334 11.0005 4.08984 10.7742 4.08984Z" fill="#FFB20F"/>
<path d="M10.7742 6.2207H5.22616C4.99991 6.2207 4.81641 6.4042 4.81641 6.63045C4.81641 6.8567 4.99991 7.0402 5.22616 7.0402H10.7742C11.0005 7.0402 11.1839 6.8567 11.1839 6.63045C11.1839 6.4042 11.0005 6.2207 10.7742 6.2207Z" fill="#FFB20F"/>
</svg>
