<svg width="13" height="14" viewBox="0 0 13 14" fill="none" xmlns="http://www.w3.org/2000/svg">
<g clip-path="url(#clip0)">
<path d="M2.81245 7.60472C2.71127 7.55949 2.59475 7.58435 2.51723 7.66772L1.62567 8.62847L0.734077 7.66772C0.628452 7.55367 0.456963 7.55345 0.351059 7.6672C0.299998 7.72205 0.271358 7.79656 0.271485 7.87422V13.7075C0.271485 13.8686 0.39275 13.9992 0.542327 13.9992H2.70898C2.85856 13.9992 2.97983 13.8686 2.97983 13.7075V7.87422C2.97983 7.7562 2.91373 7.64981 2.81245 7.60472Z" fill="#D4D4D5"/>
<path d="M5.06742 5.33539C4.96167 5.22154 4.79023 5.22154 4.68445 5.33539L3.60111 6.50207C3.55015 6.55678 3.52151 6.63108 3.52148 6.70857V13.7086C3.52148 13.8696 3.64275 14.0002 3.79233 14.0002H5.95898C6.10856 14.0002 6.22983 13.8696 6.22983 13.7086V6.70857C6.22995 6.63116 6.20152 6.55687 6.15073 6.50207L5.06742 5.33539Z" fill="#C0C0C0"/>
<path d="M8.31742 4.16938C8.21167 4.05552 8.04023 4.05552 7.93445 4.16938L6.85111 5.33605C6.80015 5.39077 6.77151 5.46506 6.77148 5.54255V13.7092C6.77148 13.8703 6.89275 14.0009 7.04233 14.0009H9.20898C9.35856 14.0009 9.47983 13.8703 9.47983 13.7092V5.54255C9.47995 5.46514 9.45151 5.39085 9.40073 5.33605L8.31742 4.16938Z" fill="#ADADAD"/>
<path d="M12.6508 3.58452L12.1091 3.00119C12.0582 2.94653 11.9892 2.91588 11.9174 2.91602H11.3757C11.3038 2.91588 11.2348 2.9465 11.1839 3.00119L10.1006 4.16787C10.0498 4.22266 10.0214 4.29696 10.0215 4.37437V13.7077C10.0215 13.8688 10.1428 13.9994 10.2923 13.9994H12.459C12.6086 13.9994 12.7298 13.8688 12.7298 13.7077V3.79102C12.73 3.71361 12.7015 3.63931 12.6508 3.58452Z" fill="#8A8A8A"/>
<path d="M12.4593 5.19392e-07H10.8343C10.6847 -0.000300262 10.5633 0.130075 10.563 0.291157C10.5629 0.368813 10.5915 0.443325 10.6426 0.498176L11.2638 1.16668L9.20931 3.37925L8.31772 2.4185C8.21197 2.30464 8.04053 2.30464 7.93475 2.4185L5.95929 4.54593L5.06769 3.58518C4.96194 3.47132 4.7905 3.47132 4.68473 3.58518L1.62597 6.87925L0.734377 5.9185C0.626797 5.80658 0.455334 5.80981 0.35141 5.92566C0.250051 6.0387 0.250051 6.21789 0.35141 6.3309L1.43475 7.49757C1.5405 7.61143 1.71194 7.61143 1.81772 7.49757L4.87597 4.20407L5.76756 5.16425C5.87331 5.27811 6.04475 5.27811 6.15053 5.16425L8.12597 3.03743L9.01756 3.9976C9.12331 4.11146 9.29475 4.11146 9.40053 3.9976L11.6468 1.5791L12.2676 2.2476C12.3184 2.30248 12.3874 2.33332 12.4593 2.33335C12.4948 2.33343 12.53 2.32589 12.5628 2.31118C12.6641 2.26609 12.7301 2.15972 12.7302 2.04168V0.291676C12.7301 0.130594 12.6089 5.19392e-07 12.4593 5.19392e-07Z" fill="#455A64"/>
</g>
<defs>
<clipPath id="clip0">
<rect width="13" height="14" fill="white"/>
</clipPath>
</defs>
</svg>
