<svg width="46" height="46" viewBox="0 0 46 46" fill="none" xmlns="http://www.w3.org/2000/svg">
<path d="M34.4145 12.8578C33.0399 12.2267 32.6428 11.845 32.6428 11.1559C32.6428 10.6044 33.0075 9.96006 34.0358 9.96006C34.9453 9.96006 35.6428 10.3708 35.649 10.3744C35.7224 10.4192 35.8047 10.4431 35.8863 10.4431C36.0853 10.4431 36.2614 10.3052 36.3343 10.0916L36.5842 9.36014C36.6712 9.0936 36.5392 8.86135 36.3709 8.77805C35.8109 8.49888 34.7166 8.28282 34.7054 8.2806C34.6878 8.27703 34.6264 8.26203 34.6264 8.17992L34.6229 7.11878C34.6229 6.79922 34.39 6.53906 34.1039 6.53906H33.6557C33.37 6.53906 33.1371 6.79907 33.1371 7.11893L33.1383 8.23456C33.1383 8.3201 33.0574 8.35722 33.0278 8.36509C31.6464 8.74197 30.783 9.90096 30.783 11.3629C30.783 13.1853 32.0984 14.0089 33.5186 14.6271C34.6539 15.1376 35.117 15.6552 35.117 16.4145C35.117 17.2407 34.4611 17.8177 33.5214 17.8177C32.719 17.8177 31.633 17.2352 31.6223 17.2293C31.5528 17.1916 31.4791 17.1725 31.4034 17.1725C31.1968 17.1725 31.0168 17.3157 30.9449 17.5374L30.7063 18.2772C30.6215 18.5534 30.7521 18.7776 30.9192 18.8774C31.5861 19.2752 32.8767 19.5083 32.9341 19.5186C32.9495 19.5211 33.0281 19.5527 33.0281 19.635V20.7457C33.0281 21.0653 33.2611 21.3255 33.5472 21.3255H34.0103C34.2966 21.3255 34.5296 21.0655 34.5296 20.7457V19.5768C34.5296 19.4675 34.6 19.4579 34.6145 19.4538C36.0862 19.0752 36.9927 17.842 36.9927 16.2935C36.9923 14.7029 36.2212 13.6752 34.4145 12.8578Z" fill="#FFB20F"/>
<path d="M33.8356 0C27.1175 0 21.6719 6.23747 21.6719 13.9314C21.6719 21.6254 27.1175 27.863 33.8356 27.863C40.5533 27.863 45.9991 21.6254 45.9991 13.9314C45.9991 6.23747 40.5533 0 33.8356 0ZM33.8356 24.6343C28.6744 24.6343 24.4908 19.8423 24.4908 13.9315C24.4908 8.02073 28.6744 3.22884 33.8356 3.22884C38.9965 3.22884 43.18 8.02073 43.18 13.9315C43.18 19.8423 38.9965 24.6343 33.8356 24.6343Z" fill="#FFB20F"/>
<path d="M43.5284 34.6136C40.9418 36.2487 37.3843 37.7605 33.8365 38.3978C30.68 38.9648 24.7417 37.5974 24.7417 35.9826C24.7417 35.3706 29.9498 37.4904 33.1002 36.5277C35.516 35.7895 35.1731 33.2013 33.8591 32.8599C32.5527 32.5203 24.8991 29.309 21.6299 29.1982C20.0899 29.1461 16.2879 29.8116 14.4481 30.1548C13.8179 30.2723 13.4227 30.2593 13.3833 30.9501C13.2002 34.1606 12.8394 40.7258 12.6427 44.1551C12.6386 44.2275 12.7265 45.202 13.4285 44.5162C14.197 43.7657 15.2748 42.9339 16.2717 43.1928C17.8357 43.5993 31.3663 46.4383 33.2326 45.9415C35.9025 45.2306 43.4606 40.1006 44.9097 38.5061C47.1558 36.0341 45.4098 33.4243 43.5284 34.6136Z" fill="#FFB20F"/>
<path d="M9.64951 30.0304L2.56118 29.6303C2.01392 29.5995 1.45499 30.0718 1.31899 30.6796L0.0301202 44.0819C-0.105755 44.6898 0.231081 45.2072 0.7786 45.2314L8.63421 45.2305C9.18186 45.2547 9.6639 44.7626 9.70591 44.1368L10.5686 31.2241C10.6104 30.5985 10.1968 30.0613 9.64951 30.0304ZM5.47654 43.4549C4.39407 43.4549 3.51672 42.4499 3.51672 41.2103C3.51672 39.9705 4.3942 38.9657 5.47654 38.9657C6.55887 38.9657 7.43635 39.9707 7.43635 41.2103C7.43635 42.4501 6.559 43.4549 5.47654 43.4549Z" fill="#FFB20F"/>
</svg>
